<svg id="Layer_5" data-name="Layer 5" xmlns="http://www.w3.org/2000/svg" viewBox="0 0 859.09 654.81"><defs><style>.cls-1,.cls-3{font-size:101.56px;font-family:Champagne&Limousines-BoldItalic, Champagne & Limousines;font-weight:700;font-style:italic;}.cls-1{fill:#c36;}.cls-2{letter-spacing:-0.04em;}.cls-3,.cls-4,.cls-5,.cls-7{fill:#f69;}.cls-4{font-size:67.7px;}.cls-4,.cls-7{font-family:SegoeUIEmoji, Segoe UI Emoji;}.cls-6{fill:#ff79a6;}.cls-7{font-size:135.41px;}</style></defs><title>lovemkissemtitle</title><text class="cls-1" transform="translate(271.91 607.08) rotate(-1.75)">KISSEM</text><text class="cls-1" transform="translate(278 176.87) rotate(-1)"><tspan class="cls-2">L</tspan><tspan x="39.13" y="0">OVEM</tspan></text><text class="cls-3" transform="translate(274.56 173.54) rotate(-1)"><tspan class="cls-2">L</tspan><tspan x="39.13" y="0">OVEM</tspan></text><text class="cls-3" transform="translate(268.43 603.8) rotate(-1.75)">KISSEM</text><text class="cls-4" transform="translate(386.78 303.01) scale(0.98 1)">♡</text><path class="cls-5" d="M388.27,405.11" transform="translate(-80.89 -56.41)"/><path class="cls-6" d="M513.76,359.7c-.11-.85-.26-1-.35-.41a9.31,9.31,0,0,0,0,1.52c0,.36,0,.77.05,1.23l.2,1.55c.33,1.06.79,2.09,1.2,3.11A44.67,44.67,0,0,1,513.76,359.7Z" transform="translate(-80.89 -56.41)"/><path class="cls-6" d="M522.66,389.52c3,4.68,7.11,9.62,5.62,6.32a61.41,61.41,0,0,1-3.7-5c-1-1.45-2-2.94-3.71-5.37-2.27-4.14-3.3-7.52-2.78-6.88-.2-.36-.47-1-.78-1.71l-.94-2.52c-.32-.91-.62-1.85-.94-2.69a20.12,20.12,0,0,0-.83-2.21c1,6,4.18,13.32,8.62,20.11C524,391.19,523,389.81,522.66,389.52Z" transform="translate(-80.89 -56.41)"/><path class="cls-6" d="M880,678.7,877.57,677C878.24,677.51,879.08,678.07,880,678.7Z" transform="translate(-80.89 -56.41)"/><path class="cls-6" d="M938.29,485.79a19.36,19.36,0,0,0,.14,3.2A18,18,0,0,0,938.29,485.79Z" transform="translate(-80.89 -56.41)"/><path class="cls-6" d="M939,436.89l0,2.88A26.31,26.31,0,0,0,939,436.89Z" transform="translate(-80.89 -56.41)"/><path class="cls-6" d="M880,678.7l6.35,4.28C887,683.08,883.17,680.74,880,678.7Z" transform="translate(-80.89 -56.41)"/><path class="cls-6" d="M563.46,438.1c-1.14-1.12-2.1-2-3-2.86l2.75,2.76A1.39,1.39,0,0,1,563.46,438.1Z" transform="translate(-80.89 -56.41)"/><path class="cls-6" d="M774.37,609.52l-1.92-1.32c-.61-.33-1.19-.62-1.74-.87Z" transform="translate(-80.89 -56.41)"/><path class="cls-6" d="M695.34,553.36a8.8,8.8,0,0,0,3.52,1.63,30.52,30.52,0,0,1-4.07-2.54C694.69,552.52,694.85,552.79,695.34,553.36Z" transform="translate(-80.89 -56.41)"/><path class="cls-6" d="M577.27,455l-2-1.83Z" transform="translate(-80.89 -56.41)"/><path class="cls-6" d="M831.89,648.32a3.14,3.14,0,0,0,.63.65C832.56,648.92,832.31,648.67,831.89,648.32Z" transform="translate(-80.89 -56.41)"/><path class="cls-6" d="M448.46,449.85c0,.08.07,0,.07.07C448.9,449.49,449,449.34,448.46,449.85Z" transform="translate(-80.89 -56.41)"/><path class="cls-6" d="M512.57,360.73l-.07,1.56c.1.17.19.35.29.36Z" transform="translate(-80.89 -56.41)"/><path class="cls-6" d="M939.74,347.39v.4C939.79,350.14,939.78,348.81,939.74,347.39Z" transform="translate(-80.89 -56.41)"/><path class="cls-6" d="M398.81,57.32c9.31.5-15.15.65-1.13,1.2C396.37,58.3,410.41,57.65,398.81,57.32Z" transform="translate(-80.89 -56.41)"/><path class="cls-6" d="M565.15,439.94l2.79,2.81C566.68,441.46,565.82,440.6,565.15,439.94Z" transform="translate(-80.89 -56.41)"/><path class="cls-6" d="M397.68,58.52h0l1.45.05Z" transform="translate(-80.89 -56.41)"/><path class="cls-6" d="M939.4,141.17a18.79,18.79,0,0,0-.25,2.1A9.63,9.63,0,0,0,939.4,141.17Z" transform="translate(-80.89 -56.41)"/><path class="cls-6" d="M938.6,294.8l.08-3.8C938.63,292.5,938.61,293.73,938.6,294.8Z" transform="translate(-80.89 -56.41)"/><path class="cls-6" d="M934.86,61.14a12,12,0,0,0-2.32-1.76,10.63,10.63,0,0,0-3.38-1.18c.3.07.58.19,1,.3a6.12,6.12,0,0,1,.94.26,7,7,0,0,1,1.11.45A9.81,9.81,0,0,1,934.86,61.14Z" transform="translate(-80.89 -56.41)"/><path class="cls-6" d="M851.43,58l1.53.11,2.63,0Z" transform="translate(-80.89 -56.41)"/><path class="cls-6" d="M249.64,604.09a36.34,36.34,0,0,1,3.45-1.74C251.81,602.74,261.79,595.76,249.64,604.09Z" transform="translate(-80.89 -56.41)"/><path class="cls-6" d="M563.26,438.35a10.3,10.3,0,0,1,1.89,1.59l-1.94-2C563,437.88,562.88,437.89,563.26,438.35Z" transform="translate(-80.89 -56.41)"/><path class="cls-6" d="M929.83,63.06a7.47,7.47,0,0,0-2.28-.58l-.61,0h-2.47l-6.6,0,6.21.06h1.71c.55,0,1.24,0,1.59,0A7.27,7.27,0,0,1,929.83,63.06Z" transform="translate(-80.89 -56.41)"/><path class="cls-6" d="M86.21,308.54l.07,3C86.29,310.4,86.27,309.33,86.21,308.54Z" transform="translate(-80.89 -56.41)"/><path class="cls-6" d="M878.74,62.47c-2.35-.2-4.85-.31-7.43-.39-.55,0-1.17.08-1.53.15Z" transform="translate(-80.89 -56.41)"/><path class="cls-6" d="M253.12,602.34h0Z" transform="translate(-80.89 -56.41)"/><path class="cls-6" d="M323.28,551.22c-10.15,7.38-4.34,4.05-6.24,6-12,9-5.94,3.62-10.3,6.3-7.49,5.61-13,10.32-18.67,14.31-.5.2-1.63.95-.42-.1-7.74,6.2-24.07,16.84-33.18,23.94a10.1,10.1,0,0,1-1.35.7c1.75-.75,2.2-.6,2-.16-4.64,3.19-8.38,6.27-10.4,7.06A31.74,31.74,0,0,0,249,606l-4.77,3.49c-4.79,2.41,6.53-4.72,6.24-5.15-9.38,6.67-20.19,14.62-27.65,19.35-1.9.47,17-11.66,6.9-5.61l11.46-7.4c-9.24,4.95,6.91-4.58-1.67-.17-15,9.86-16.47,11.49-31.51,21.2-3.16,2.53,1.42-.27-1.74,2.27-20.92,14.53-17.69,9.55-32.91,20.47-3.83,3-4.94,4.75-16.42,11.53l3.42-3.09c-14.71,9.26-7.77,6.27-23.45,15.54,2.58-2,11.42-7.5,9.15-6.17-10.3,5.78-6.82,4.82-14.51,9.63l-2,.42-24.43,15.52-12.8,8-.81.5-.69.39-.7.31c-.23.06-.46.16-.69.21a2.91,2.91,0,0,1-2.32-.28,3.39,3.39,0,0,1-1.32-2.12,7.12,7.12,0,0,1-.21-1.55c0-.54,0-1.25,0-1.87a18.33,18.33,0,0,0,.33,2.05c.06.17.11.18.15-.08s.09-.92.14-2.12c-.34-25.86.08-55.21.49-80.16l-.59-9.53c0-2.22.27-4.11.38-1.71.22-9.72-.37-.5-.6-5.18,0-5.53.34-7.31.51-3.8-.5-17.16-1.07-48.87-.44-67l.17,3.52c.24-14.08-1.2-15.89-.66-28.94l.1,2.5c.25-30.55-.28-64.31.6-87.62-.85-4.43.38-30.24-.8-32.2.58-17.45.8-12.45,1.19-37,.05-6.56-.74-9.78-.86-17.89l.62-.2-.65-11,.74-5.86-.16-7.61c0,3-.28,6.44-.45,6-.14-5.94,0-13.19.15-19a97.3,97.3,0,0,1,.6-10.29L86,260.17c.25.62.33,5.33.49,9.06-.63-15,.65-2.73.07-16.48-.14,1.84-.37-1-.49-1.31.37-6.86.38-22.46.22-34l.42,2.22c.12-20.85-.23-44-.17-67.37-.22,8.39-1,6.46-1-.4l.66-2.74c-.39-4.43-.26,7.17-.73-1.93.1-8.74.76-5.87,1-.85l-.19-10.63c.2-.62.29,1.87.53,2.52-.38-4.36.75-18.35.07-24.64l.2-.6c.06-11.7,0-20.2,0-28.16l0-11.87V69.89c0-.29,0-.42,0-.63a3.2,3.2,0,0,1,.05-.57,7.75,7.75,0,0,1,.24-1.13,7.51,7.51,0,0,1,2.89-3.92c0-.25,1.12-1.36,3.16-1.69.25-.06.51-.05.78-.09s.68,0,1,0l2.22-.08c1.5-.06,3-.14,4.45-.25,14,.18,29.55.62,46.43.57,11.86-.28,3.46-.48,8.8-.81.87.51,17.73.46,9,.83,20.26-.08,25.87-.1,51.49-.52-2.78-.21-5.91-.3-4.29-.48,4.65-.08,10.58.21,9.91.46l-1.23.05c28.76-.77,66.37,1.49,89.27.43l-1.28.05,23.75-.56c10.92.09-6.55.38,1.53.7,25.61-.86,40.47.12,61.57-.45,16.33,1.51,57.94-.11,80,.86l-1.27-.36c5.69-.35,6.89.2,11.09.29-.6-.28-6.18-.32-2.64-.51,48.25-.43,99.6.52,149.07.84,18.09.1,10.27-1.84,33.08-1l-6.47.66c36.51-.79,74.66,0,110.41-.64a44.06,44.06,0,0,1-5.68.35c3.77.24,10.75.25,16.81.14,3-.05,5.82-.13,7.87-.22a17.1,17.1,0,0,0,3.37-.29c5.57,0,1.29.35,4.72.55,7.57.28,19-.61,23-.14.68.08-2.13.16-3.51.19,4.94-.23,23,.06,18.27-.49,13.42.26,25.66-.25,36.37.08,7-.62,23,.3,25.18-.58-.48.45,5.4.63,12.46.65,3.53,0,7.36,0,10.83-.09l4.86-.11,2.08-.07c.36,0,.53,0,.78,0a4,4,0,0,1,.66,0c-.56,0-.47,0-.1.15a8.39,8.39,0,0,1,1.65.56c1.25.56,2.13,1.49,1,.94a7.42,7.42,0,0,1,3.08,3.83,7.89,7.89,0,0,1,.41,2.17l.07,2.63c.1,3.22.26,5,.49,4.17-1.08,17.84.87,35.85-.52,45.89.49,28.76.82,55.37,1,81.23-.9-.93-.09-28.59-1-27.48.37,24.54,1.15,38.7.93,63-.12,6.3-.39-3.58-.55-5.71.37,24.52-.08,47.4.41,69.22-.08-.06-.18-2.41-.24-4.64,0,4.3-.13,10,.28,9.51l-.11-4.19c.6-6.86,1.24,17.07,1.56,17.84-1.18-7.3-.3,21.55-1.78,10,.08,2.83.27,6.38.55,5.73-.08,4.2-.24,5.53-.55,1.27.22,15.4.66,9.93.65,23.88-.2,0-.28-2.86-.51-4.31.39,7.06.77,14.16.61,26-.12-.71-.28.66-.27-2.86.06,20.25,1,34.51.66,56.73-.86-6.55-.28,7.56-1,8.73l.22,11.95.36-4.79c0,10.46.53,19.71.29,28.71l-.31-7.78.14,19.61.28-11.1c.38,10.59.94-1.13.74,12.79-.08-2.83,0,10.47-.45,15.92v0c.24,5.18.49,10.5.3,18.24-.24,2-.83-1.62-1-.31.62,5.11.17,24.5.84,31-.16-2.16-.55-2.27-.63-1.56l.51,4.29c-.16,4.85-.24,5.56-.55,4.77-.09,14.58.95-4.63.54,12.67,0-1.36-.12-.71-.19-3.54-.21,17.38.32,33.58.07,49.55-.75,4.71-.18-14-.82-8.56.14,23,.9,47.68.72,70l.08-4.15c.53,1.54.4,5.69.2,10.86-.1,2.59-.22,5.43-.28,8.33a7.23,7.23,0,0,1-.91,3.59,3.31,3.31,0,0,1-2.73,1.54,2.08,2.08,0,0,0,1.8-.86c.18-.29.1-.39,0-.17a3.83,3.83,0,0,1-4,0,12.28,12.28,0,0,1-1.13-.61l-1.25-.76-2.54-1.54-10.74-6.46c-7.53-4.52-15.91-9.53-25.76-15.57l2.57,1.3c-7.47-5-19.91-12.81-28-18.18-2.57-1.33-7.21-4.39-4.59-2.22-24.29-17.56-48.25-30.6-69.51-46.6,2.63,1.78,6.4,4.05,4.31,2.63l-18.83-12.55c1.21,1.39,2.29,1.91,6,4.89-2.52-1.39-7.91-4.83-12.52-8,8.55,5.53.35-.66-3.12-3.37.53.54-.8-.19-.58.14-9.24-7.43-2.17-.35-15.08-10.06l.84.29c-5-3.37-9.75-6.32-15-10.15-1.89-2,5.39,3.52,6,3.4-7.48-5.26-15.3-9.65-21.7-14.93,3.23,2.16,7.78,5.42,11,7.56-7-5.76-7.9-6.25-13.27-10.25l.53.4L705.42,557l3.08,2.47c-10.06-5.64-18.92-13.62-31.75-22.22,12.47,8.37,2.28,1.1,3.56,1.31-3-2.51-7.68-6.29-6.22-5.39-6.08-4-9.41-7.71-17.94-13.48-.24-.43-6.11-4.84-4.51-4.21-7.51-5.77,1.54,1.66.77,1.35-11.88-8.53-26.29-22.05-42.77-35.07-7-5.78-11.14-9.15-15.19-12.44s-7.93-6.5-14.16-12.16c-2-2.06-1-1.39.47-.21s3.41,2.87,3.41,2.87c-6.49-6.45-11.47-11.2-17.7-17.16,1.35,1.12.18-.26-1.5-2.28a59.08,59.08,0,0,0-4.45-4.1,50,50,0,0,1-5.34-5.54c1.23,1,2.84,2.23,5.3,4.49-5.75-5.76-11.41-11.47-17-17.82-1.17-1.93,3.65,3.57,5.8,5.63-3.19-3.49-7.2-8.12-10.57-12.22s-6.14-7.63-7.21-8.66c1.13,1.68,2.26,3.36,3.44,5-2.1-2.74-.7-1.69.91.28,5.24,6.18,7.16,9.24,7.28,9.74q-2-2.26-3.9-4.57c1.47,2.78,5.35,7.42,10,12.37s10,10.21,14.21,14.56q-2.06-1.51-4.1-3.05c3,2.85,6.1,5.63,9.18,8.4,1.73,2,2.67,3.62-1.65-.52,5.87,6.42,5.66,5.21,10.72,10.71.54.62.25.39-.33-.11q3.16,2.84,6.35,5.65c-1.33-1,.62,1.4-3.1-2.26,10.79,10.8,18.57,16.1,22.46,20.37l-1-.8c8.06,6.85,8.57,7,8.58,6.79s-.43-1,5.84,3.89l7.2,8,2,.86c1.66,1.42,5,4.18,4.2,3.87,6.54,4.82-.91-1.08,3,1.6,7.75,7.1,22.73,17.9,24,20.1,3.25,2-7.68-6.47,1.34.18,1.87,2.8,10.33,7.82,17.66,14-2.67-1.35-9.71-7.11-2.38-.89,5.14,2.79,14.76,11.44,21.37,16.11.73-.35,14.31,10.23,25.46,18-.86-.28,20.5,15.23,30.72,22.65l-.38-.11c2.42.81,13,8.38,20.92,13.62-.56.15-2.06-.67-6.4-3.43l7.34,5.06c1.87,1,4.23,2.47,9,5.66l-2.16-.81c9.81,6.67,20.12,12.91,32.61,21.69,1,0-9.3-7.93,4.31.75.35.56.58,1.29-3-1,1.17.74,4.23,2.54,6.49,4.18l-5.63-3.18c5.67,4,3.24,1.69,7.85,4.8-.31.27,3.27,2.51,2.44,2.33-1.2-.75-4-2.81-5.81-3.86,5.18,3.53,11.38,7.89,13.3,9.52-.33-.49.29-.44,4.16,2,9.94,6.48,3.14,2.62,8.82,6.58,2.56,1.34,8.75,5.7,9.24,5.31a28.32,28.32,0,0,1,4.34,3.33c5.29,3.13,24.18,15.42,18.69,11.16l-1.3-.88.86.52,0,0,0,0c8.64,5.16,17.43,10.82,26.2,16.46L916,701.22l6.53,4.06,3.25,2c1.1.64,2.09,1.32,3.36,1.91l-.11.17a8.81,8.81,0,0,0,2.47.7,6,6,0,0,0,2.75-.31,5.76,5.76,0,0,0,3.37-4.25,10.84,10.84,0,0,0,.27-2.59l0-2.39,0-4.72c-.06-6.2-.14-12-.35-16.24,0-3.52.36-8.32.6-6.81-.15-9.11-.37-10.13,0-23.29.34,9.16.31-3.16.25,9.39.17-11.84.49-14.52-.05-27.22.51,4.33.64-8.91.49-14.54l-.36,8.29c-.07-6.33,0-11.86,0-17.48l.67,3c.81-24.22-1.38-43.68,0-62.12-.47-6.41-.33,13.15-.87,7.42.09-11.14,1-22.75,1-26.24.37-15.26-1-14.24-.72-30.21-.24,2-.87,4-1.09-8,.09-11.15,1-13.7,1.19-6.67a17.7,17.7,0,0,1-.14,3.85c.09,3.6.19,8.33.45,3.91l-.24-1.45c.24-5.53.22-20.87.61-17.27-.23-8.42-.39-3.6-.51,2.64.34-14.3,0-22.34.24-37.06-.13,2.34-.41,4.5-.41,2.17.29-21.59-.45-9.51-.55-24.14.36-8.31.86,3,.56-11.75.24-9,.63-1.9.82,1.67-.46-13.42.3-25.07.38-32.73l.19,7.07c-.11-4.23-.11-7.69-.11-11.21l-.47,4c.08-4.15.08-7.66.28-7.58-.31-4.28-.79,3.27-1.21-5.21.24-5.53-.26-16.85.37-18.76-.21,17.4.63-1.92.73,12.8-.08-2.84-.07-6.3,0-10.47.07-.62.13.59.17,1.72.56-16.65-.71-7.65-.7-24.91.35,2.19.67-4,.6-6.82,0,7-.59,3.33-.86-3.05.28-11.06-.21-12-.17-17.82l-.13,6.61c-.35-2.24-.31-7.77-.42-15.48.28-.66.19,7,.31,4.25-.62-8.56.65-19.35.23-31.29.24-5.53.67-.54.83-5.39-.46-13.38.49-14.49.11-28.56-.48,4.05-.36,4.76-.83-5.14l.34,23.12-.69-14.84c0,7,.3,14.73.22,18.91-.39-7.07-.27-6.34-.67-3,.72-9.55-.42-18.93.07-30l1.18.34c.53-16.59-.61-29.48-.31-51l-.21,6.92c-.47-2.89-.07-13.3-.26-20.28.4.65.54-3.71.78-6.69-.29.36,0-15.77-.76-17.73l.52-9.62c.21-17.4-1.12-19.86-1-36.58.43,5,.71-2.56,1,8.64,0-5.58.08-10.61-.2-10.69.06-.82.06-2.19,0-3.88l-.07-2.73a17,17,0,0,0-.31-3.31,11.85,11.85,0,0,0-3.45-6,13.32,13.32,0,0,0-2.49-1.84,15.49,15.49,0,0,0-2.35-1,10.93,10.93,0,0,0-3.62-.08,60.91,60.91,0,0,1-6.16.2c-.68-.08,0-.19,0-.19,0,.19-9.81.27-4.34.7-17.2-1.23-48.08.09-63.05-1-12.19.13-26.87.26-37.93.29.71-.12,0-.2,2.13-.16-15.26-.37-9.38,1.13-26.75.72-8.87-.64,9.22-.35,3.69-.59-2.41-1.3-21,.18-32.65-.58l2.83-.08c-8.93-.44-21.8.49-36.39.4,0,0,.71-.11.09-.2-10,.66-28.88.88-42.92,1.07,4.37-.51,6.38-.27,3.71-.79-6.29.07,1.84.83-10.72,1-4.08-.28-13.15-.52-14.35-1.07l11.85,0c-6.07-.71-15.34,0-21.58-.1l.8-.31c-18.16.1-18.41.89-37.93.83l2,.24c-10.67.78-8.94-.44-19.58.14L596,58.13c-7,.19-24.65.76-37.28.91,7.15-.59,21.92-.88,31.06-1.23-7,0-23.71.06-27.35.45,2.81-.08,6.35-.27,9.13-.15-8.56.62-19.82.93-33.72.91,2.46-1.53-36.24-.39-46.32-1.57-24.59.57-48.79-.24-77.44-.15,10.16,1.19-8.36,0-6.61,1.26-6.67.08-9.22.06-9.81,0l-20.23-.73c-4.79-.36,6.35-.27,5.73-.54-14.61-.09-6.13-.52-15.8-.84,2,.44-5.08.63-13.41.46l11.73.56c-20.42.65-17.65-1-38.23-.38l6.51-.38c-10.56.23-39,0-49.32,1-1.87-.14-4.34-.48.31-.56-25.24-.15-56.19,1-75.81.44l1.91-.3c-4.71.09-8.2.56-14.09.26.3-.12,1.9-.3-.28-.32-2.49.1-12.51.52-18.75.35l5.33-.34c-24.62-.39-37.79.82-58.43,1,.05-.88-19.32-1.17-29-1.31l.34-.12H94.89c-.39,0-1,0-1.56,0a12.47,12.47,0,0,0-3.29.71,12.93,12.93,0,0,0-8.22,9.24c-.13.51-.18,1-.26,1.54s-.07,1.08-.07,1.5v2.39l.2,18.3c.18,11.91.42,23.56.52,36.83-.53,8.23-.68,22.2-.75,37.41s0,31.67-.31,44.91c.16-4,.69.66.77,5.37-.18,6.22.61,17.18-.2,16.2l0-2.22c-.79,4.68-.58,17.46-.6,27.43l1.06,1.65c-1.54,26.09.56,68.36-.81,82.6.26,6.29.26,14.09.52,20.34l-.57-.34c-.14,17.45-.22,26.15-.08,47.72l-.4-4.4c0,12.16,1.63,15.36,1.67,26.58l-.85,3.38c0,21.22-.73,42.69,0,63.66-.12-.34-.37-1-.4-4.4,0,10-.57,38.63.59,35-.76.25-.07,21.89.26,33.35l-.56-1.78c.71,9.67.91,10,1.1,23.49-.07,3.2-.45,2.8-.3-1.45-.29,10.67.53,8.31.23,21.24l-.36-4.82a131.09,131.09,0,0,0,.56,16.14c.22,6.9-.14,20.82-.64,22.44a92.12,92.12,0,0,1,.57,14c-.19.87-.31-1.48-.37-2.67-.38,18.35.65,27.28.1,39.9a5.87,5.87,0,0,0-.33,2.13c0-14.58,0-26.32.08-25.22-.51,0-.6,11.78-1.31,2.41l.73,17.79c.11,3.33.21,6.72.26,10l0,4.81v2.3a17.27,17.27,0,0,0,.09,2.47,13.54,13.54,0,0,0,.27,1.91,10.23,10.23,0,0,1-.44-1.47,7.55,7.55,0,0,0,2.38,4.57,6.33,6.33,0,0,0,4.81,1.48,9.37,9.37,0,0,0,3.18-.77c.46-.18.84-.41,1.25-.62l1-.56c1.29-.74,2.55-1.48,4.05-2.39,1.39-.33,11.67-6.83,16.67-9.9-.71-.22,5.88-4.19-.49-.8.82-.46-.91.64-4.23,2.71-.74.48-1.63,1-2.1,1.36l.32-.25L96.3,707.58a144.64,144.64,0,0,1,13.54-8.5c2.38-1.88,5-3.94,6.51-5.07,7.26-3.54,20.62-11.4,22.7-12.14,15-9.78,35.58-22.81,44.46-29.84a37.51,37.51,0,0,1,6.77-3.83c-2.41,1.69-5.36,3.58-6.61,4.58,8.42-5.75,25.25-16.59,26.86-18.56,10.9-6.81-5.65,4.56,9-5.29l-1.86,1.51c14.8-9.11,26.25-17.4,38.06-26s24-17.46,40.13-28A39.91,39.91,0,0,1,292,578.9c36.27-24.78,72.93-53.56,107.12-80.21,9.65-7.67,10.36-8.92,15.87-14l2.42-1.27q4.67-4.44,9.26-8.95c6.67-6.21,12.76-11.24,19.19-16.82a217.11,217.11,0,0,0,20.86-20.41L464.36,439c2.93-2.94,7.41-7.75,11-11.75s6.3-7.13,6-6.45a32.59,32.59,0,0,1,3.68-4.71h.4c4.18-5.38,8.19-10.9,11.85-16.65,2.26-3.25,3.3-4.76,3.87-5.43s.65-.53.86-.58.54-.28,1.52-1.79a71.93,71.93,0,0,0,5.22-9.56,58.17,58.17,0,0,0,4.34-14.73l.22-1.7.1-1.53a20.74,20.74,0,0,0,0-2.35c0-1.2-.11-1.59-.2-.78a32.12,32.12,0,0,1-.81,5.79,10.42,10.42,0,0,1-1.08,3.22,44.93,44.93,0,0,0,1.13-7.78c-.41-.75-.8-2.59-1.27-1.89a4.19,4.19,0,0,0-.38,1c-.15.53-.25,1.27-.49,2.26a61,61,0,0,1-2.68,9.34,80.54,80.54,0,0,1-4.63,12.19c-.81,1.17-1.59,2.35-2.44,3.5a99.72,99.72,0,0,0,4.93-9.84c-1.43,2.77-2.58,5-3.62,7.11s-2,4-3,6a43.88,43.88,0,0,0-3.38,4.4c-2.14,3.76-4.44,7.45-6.84,11.08-1.25,1,3-5.06-2.5,1.73-3.47,5,4.29-4.08-1.8,4-2.17,2.34-3.06,3.06-3.94,4a63.93,63.93,0,0,0-4.11,4.91c-.88.63.07-.65,1.91-3-2,2.62-5,5.92-7.62,8.9s-5.09,5.64-6.11,7.05c-2.49,2.22-6.41,6.25-9.77,9.55s-6.16,5.88-6.22,5.34c-1.35,1.61-8,8.59-12.56,12.73,3.77-4.17-.45-.29-5.5,4.2s-11,9.58-10.22,8.18a192.28,192.28,0,0,1-14.75,13.39c-6.32,5.36-13.36,11.1-18.93,15.9a31.56,31.56,0,0,1,2.79-2.48c-6.49,5.13-8.56,6.39-12.83,9.54-.34,1.28-10.37,9.37-15.6,14-8.5,5.57,4.33-4.48,1.36-3.12.81.21-13.61,11.2-10.55,9.53-6.47,4.31-5.47,3.85-9.06,5.73-.5,1.6-5.68,4.46-10.5,8.76-9.33,6.26-2.86,1-12.64,8.5C314.62,558,323.28,551.22,323.28,551.22ZM85.42,701.35h0l0,1.8,0,.72.1.65a5.14,5.14,0,0,0,.71,1.82,4.79,4.79,0,0,1-.67-1.63,7.86,7.86,0,0,1-.17-1.36C85.41,702.85,85.43,702.08,85.42,701.35Zm0-24.67,0,10.7c-.19.87-.39-.07-.38-2.55C85.13,686.17,85.24,680.35,85.41,676.67Zm19.53,26.47a31.43,31.43,0,0,1-5,2.87l5.8-3.61.36-.3A8,8,0,0,1,104.94,703.15Z" transform="translate(-80.89 -56.41)"/><path class="cls-6" d="M110.55,698.85l1.35-.88-2.05,1.11-1.09.87Z" transform="translate(-80.89 -56.41)"/><path class="cls-6" d="M877.14,676.74l.43.29c-.35-.25-.68-.48-.88-.65C877,676.59,877,676.6,877.14,676.74Z" transform="translate(-80.89 -56.41)"/><polygon class="cls-6" points="5.6 279.61 5.45 279.64 5.58 281.8 5.6 279.61"/><path class="cls-6" d="M765,600a14.38,14.38,0,0,0-1.38-1.13C763.69,598.91,764.3,599.39,765,600Z" transform="translate(-80.89 -56.41)"/><path class="cls-6" d="M717.23,566l-6.59-5C713.47,563.13,715.56,564.7,717.23,566Z" transform="translate(-80.89 -56.41)"/><path class="cls-6" d="M681.15,538.9a3,3,0,0,0-.85-.34l.07.06Z" transform="translate(-80.89 -56.41)"/><path class="cls-6" d="M934.84,297.91l0-1.74C934.71,292.08,934.75,294.86,934.84,297.91Z" transform="translate(-80.89 -56.41)"/><path class="cls-6" d="M936.15,511.43c-.1-2.27-.2-4.5-.27-6.86C935.85,508.37,935.83,511.32,936.15,511.43Z" transform="translate(-80.89 -56.41)"/><path class="cls-6" d="M930.74,63.56h0a7.8,7.8,0,0,0-.93-.5A7.51,7.51,0,0,1,930.74,63.56Z" transform="translate(-80.89 -56.41)"/><path class="cls-6" d="M935.9,494.64c-.11,3.8-.09,7,0,9.93C935.93,501.45,936,497.78,935.9,494.64Z" transform="translate(-80.89 -56.41)"/><path class="cls-6" d="M537.11,408l-1.28-1.74c0,.05-.11,0-.23-.15Z" transform="translate(-80.89 -56.41)"/><path class="cls-6" d="M535.61,406.09c-.5-.62-1-1.25-1.48-1.88A17.89,17.89,0,0,0,535.61,406.09Z" transform="translate(-80.89 -56.41)"/><path class="cls-6" d="M531.07,400.19c1,1.36,2,2.69,3,4C533.09,402.8,531.85,401,531.07,400.19Z" transform="translate(-80.89 -56.41)"/><path class="cls-6" d="M577.1,452l.63.33C577.44,452.05,577.22,451.93,577.1,452Z" transform="translate(-80.89 -56.41)"/><path class="cls-6" d="M590.36,464.3c-3.16-2.95-7.67-7.67-12.11-11.75l-.52-.27C580,454,587.08,461.8,590.36,464.3Z" transform="translate(-80.89 -56.41)"/><path class="cls-6" d="M646.52,515.16q-5.91-4.8-11.76-9.67c1.93,1.85,4.46,4.28-.95,0C648.34,518,631,502.62,646.52,515.16Z" transform="translate(-80.89 -56.41)"/><path class="cls-6" d="M683.67,544.28c-6.59-4.84-.12.31-.53.15C687.4,547.39,688.43,548.1,683.67,544.28Z" transform="translate(-80.89 -56.41)"/><path class="cls-6" d="M938.28,669.29l.51.82C938.72,663.82,938.6,670.06,938.28,669.29Z" transform="translate(-80.89 -56.41)"/><polygon class="cls-6" points="854.75 547.72 854.44 553.85 854.9 556.77 854.75 547.72"/><polygon class="cls-6" points="858.4 509.23 858.47 511.98 858.29 501.47 858.4 509.23"/><path class="cls-6" d="M866.19,57.54l1.9.63C872.36,58.06,873.25,57.35,866.19,57.54Z" transform="translate(-80.89 -56.41)"/><path class="cls-6" d="M619,58.19A99.16,99.16,0,0,0,605.12,58C610.67,58,616.22,58.27,619,58.19Z" transform="translate(-80.89 -56.41)"/><polygon class="cls-6" points="0.54 214.06 0.33 209.09 0.51 218.46 0.54 214.06"/><text class="cls-7" transform="matrix(0.96, 0.29, -0.29, 0.96, 596.73, 505.45)"></text></svg>