<svg id="Layer_1" data-name="Layer 1" xmlns="http://www.w3.org/2000/svg" viewBox="0 0 400 300"><defs><style>.cls-1{fill:none;}</style></defs><title>Artboard 1</title><path d="M118.9,107.12l.1,1v.1q.2,4.8.2,6.25a8,8,0,0,1-.35,2.5q-.35,1.05-.9,1.2a5.21,5.21,0,0,1-1.35.15h-1.3l-1.7-.1-20.9.3q-11,0-17.8-.1v-2h-2v-2.8q.7-14.1.7-34.35t-.4-35a23.78,23.78,0,0,1,8.65-1.2,23.24,23.24,0,0,1,9.35,1.6L91.1,46a7.67,7.67,0,0,1,2.1.7q-.2,7.2-.2,11.9l.3,35.7v4q13.6.8,17.65.8t6.25-.2v2.2l2-.2Zm-2.9-.9-.1-1q0-.9.15-2.6t.15-2.5a5.68,5.68,0,0,1-1.5.1l-21.4-.9a21.3,21.3,0,0,0-3,.2v-.1l.1-7.8L90,57.32q0-4.2.2-12a22.53,22.53,0,0,0-8.3-1.2q-5.4,0-7.7.9.4,19.9.4,37.2t-.7,31.4v1.8q14.6.2,19.1.2t9-.1q4.5-.1,6.85-.2t3.05-.1l2.2.1a1.93,1.93,0,0,0,1.7-.6,4.14,4.14,0,0,0,.4-2.15Q116.2,111,116,106.22Z"/><path d="M150.3,119.72q-14.5,0-19.2-9.7v.1a19.39,19.39,0,0,1-2.5-8.5q-.3-3.7-.3-9.5-.5-8.5-.5-18.3a75.61,75.61,0,0,1,1.1-14.9q1.9-8.5,7.3-11.6a28.34,28.34,0,0,1,12.6-3.1q13.4,0,19.1,6.9a23.83,23.83,0,0,1,5,7.1q1.7,3.8,1.7,12.4-.2,20.1-.6,24.2l-.3,3.3q-.8,9.2-4,14a16.19,16.19,0,0,1-8.25,5.75A34.48,34.48,0,0,1,150.3,119.72Zm-.3-74.4q-10.9,0-15.6,4.7a17.31,17.31,0,0,0-3.9,7.3q-.4,1.6-.7,2.55a15.73,15.73,0,0,0-.5,2.9q-.2,1.95-.3,2.7t-.15,2.9q-.05,2.15-.05,2.55v5.2q0,2.4.8,22.4.2,10.3,4.95,14.25t13.75,3.95a32.94,32.94,0,0,0,10.75-1.8,15.53,15.53,0,0,0,7.85-5.4q3.1-4.8,3.8-13.5l.3-3.3q.5-5.7.5-24.1,0-8.8-1.8-12.5a14,14,0,0,0-7.4-8.1A27.53,27.53,0,0,0,150,45.32Zm9,40q0,9.6-.6,11.3-2,6.1-8.9,6.1-5.7,0-7.5-4.4a27.47,27.47,0,0,1-1.65-8q-.35-4.7-.55-7.1t-.2-4.1q0-20.1,11.1-20.1,8.1,0,8.1,14.7l.2,6.8Zm-1.2-12a26.19,26.19,0,0,0-.8-7.2q-.8-2.7-1.8-3.4a4.09,4.09,0,0,0-2.4-.7,8.24,8.24,0,0,0-5.7,2.4,12,12,0,0,0-3.5,6.2q-1.4,5.7-.8,15.4.3,1.5.8,6.5a33,33,0,0,0,1.3,8,9.79,9.79,0,0,0,5.25,1.2A7.74,7.74,0,0,0,156,99a8.41,8.41,0,0,0,1.75-3.9q.25-1.9.25-9.8v-4.8l-.2-6.8Z"/><path d="M214.6,118.22l-7.1.4q-6.3,0-9.2-1.1a4.6,4.6,0,0,1-.25-.75q-.15-.55-1.75-1.25a360.62,360.62,0,0,1-11.8-68.7q1.8-2.1,7.95-2.1a41.63,41.63,0,0,1,8.15.5,3.11,3.11,0,0,0,.55,1.7,2.39,2.39,0,0,0,1.45.3q.3,1.5.8,14.25a165.15,165.15,0,0,0,2.4,23.15q.5-2.2,3.3-18.7t4.2-21.1a46,46,0,0,0,8.45.75,55.38,55.38,0,0,1,6.85.35l.8,1.2c-.07.07-.1.27-.1.6a3.07,3.07,0,0,0,1.3.2l.8,1.2Q226.5,75.32,214.6,118.22Zm-9.1-2.6,6.3-.4q11.8-42.8,16.6-68.3a44.46,44.46,0,0,0-7.1-.4A38.88,38.88,0,0,1,214,46a.18.18,0,0,0-.2.2q-1.3,4.9-3.65,20T205,93a190.17,190.17,0,0,1-4.7-37.9q-.3-7.5-.6-9-1.2-.4-7.15-.4t-7.05,1.4v.1a361,361,0,0,0,11.7,67.6A29.62,29.62,0,0,0,205.5,115.62Z"/><path d="M284.8,101.82l.1.9a14,14,0,0,0,1.9-.1v1.2q.2,3,.2,6.2a34.18,34.18,0,0,1-1.2,8l-26.2.3q-8.9,0-16.6-.6v-1.9l-2-.1-.6-44.3q0-12.6.8-26,18.7-.9,35-.9,7.9,0,8.3,1.2a1.51,1.51,0,0,0,1,1.45c.67.3,1,.48,1,.55a30.66,30.66,0,0,1,.4,5.2l-.4,10a57.71,57.71,0,0,1-12.9,1.2H270l-3.9-.1q-3,0-6.2.3l-.3,7.2v.9l1.8.1,3.9-.1q.5,0,5,.3,0,1.9.9,1.9l1.1.1a32.7,32.7,0,0,1,.5,6.1l-.2,9.5a28.17,28.17,0,0,1-7.25.85q-4.45.05-4.95.15a25.2,25.2,0,0,0-.3,4.55q0,3.05.1,4.35,12,.6,16.7.6t7.9-.2Zm-28.3,13.5L283,115a28.53,28.53,0,0,0,1-7q0-3.1-.2-6.1v-.2q-1.5.1-4.3.1l-21.9-.6-.1-.1a42.1,42.1,0,0,1-.4-6.45,34.46,34.46,0,0,1,.4-6.05q.6-.5,5.35-.5a26.36,26.36,0,0,0,6.75-.6l.1-8.7a32.83,32.83,0,0,0-.3-5.2v-.1q-6.9,0-12.3-.3l-.1-.1a15,15,0,0,1-.4-3.8l.3-7.9a45.2,45.2,0,0,1,7.1-.3h7.9a53.33,53.33,0,0,0,11.6-1V60l.3-9.5a37.85,37.85,0,0,0-.3-4.7q0-.3-11.45-.3t-30,.9q-.6,9.7-.6,24l.5,44.4Q247.9,115.32,256.5,115.32Z"/><path d="M344.1,55.22l.2,21.1q0,7.2-.2,9.3l-.3,32.9a45.53,45.53,0,0,0-6.4-.4l-8.8.2a16,16,0,0,1-.1-2.1l-1.9.1q-.3-5.3-.35-16.1t-.15-14.1q-.7,1.7-.9,2.4a11.9,11.9,0,0,1-.5,1.4l-.5,1.15q-.2.45-.45,1t-.45.85a3.07,3.07,0,0,1-.5.65,1.44,1.44,0,0,1-1,.5q-.8,0-2-2-1.5-.1-3.6-5.1-.1,2.4-.1,9.1t1,21.9a54.64,54.64,0,0,1-8.3.6l-3,.1q-5.3,0-5.3-2.3H300q-.8,0-1.25-1T298.29,93q0-21.3.3-47a19.23,19.23,0,0,1,6.1-.9l6.1.2q1.8,0,2.9-.1.7,1,1.4,2.1l.6-.1a13.72,13.72,0,0,1,2.45,4.15q.95,2.45,1.65,4.55t1,2.8Q323,49,326,44.92a17.19,17.19,0,0,0,2.4.2l13.8-.5-.1,2h2.1Q344.09,49.12,344.1,55.22Zm-16.5,60.1,6.3-.1h3.6q1.1,0,3.3.2l.3-31.9q.2-2.2.2-9.8l-.2-20.5q0-5.1.1-7.6l-13.2.5a6.35,6.35,0,0,1-1.6-.1q-1.5,2-3.55,8.85t-2.35,6.75q-.7,0-2-3.3t-2.85-7.2a22.8,22.8,0,0,0-2.3-4.9h-.1q-1.1.1-3.5.1l-3.6-.1h-1.6a17.71,17.71,0,0,0-4.9.5q-.3,25.6-.3,47.1t.7,21.5l7.5.1a45.12,45.12,0,0,0,6.5-.4q-.9-13.7-.9-22.1t.6-15.8l.3,1q.2.5.85,2.4T316.1,84l1.3,3.35q1.7,3.7,2.5,3.7t3.2-6.75q2.5-6.75,3.1-7.85.8,6.6,1,21.85T327.6,115.32Z"/><path d="M104.3,164.62l6.6-.1a47.42,47.42,0,0,1,6.9.5q-.1.3-.3.8a6.87,6.87,0,0,0-.3.9l2.6.3q-2.3,7.4-9,19.15t-8.2,15.15l17.4,36.3a28.41,28.41,0,0,1-6.9.8l-8.9-.3a17,17,0,0,1-1.6-2h-.4q-5.1-5.4-10.4-19l.4,20.5a27.59,27.59,0,0,1-7.75.9,41.2,41.2,0,0,1-8.85-.9q-.2-1.6-.9-1.9h-.45a2.08,2.08,0,0,1-.65-.1q-.4-8.7-.4-20.3l.6-50.9h2.4l13,.2v2h2q.1,3.9.1,13v4.1q1-1.8,3-5.6a108.92,108.92,0,0,1,8.1-13.6Zm-15.1,70.2-.4-20.9q0-3.3.1-4.9.8,1.4,5.6,11.85t8.2,14.25q7.5.3,9.5.3a21.59,21.59,0,0,0,4.4-.5l-17.1-35.5a167.85,167.85,0,0,1,8.5-15.8q6.7-11.5,8.5-17.8a39.45,39.45,0,0,0-4.9-.3l-6.1.1a23.55,23.55,0,0,1-2.6-.1,122.41,122.41,0,0,0-6.75,11.65A82,82,0,0,1,88.9,189l-.5.6q-.1-2.4-.1-7.4V173q0-5-.1-7.4l-11.5-.2q-1.5,0-1.75.35a1.82,1.82,0,0,0-.2,1.15q0,.8,0,1l-.6,47.3q0,10.9.4,19.6a37.72,37.72,0,0,0,7.75.7A25.78,25.78,0,0,0,89.2,234.82Z"/><path d="M123.5,163.52l11.8.5h5.8v2h2v1.4l-.7,48.5q0,11,.6,21.3-1.6,1.6-7.3,1.6l-8.7-.2a18.47,18.47,0,0,0-4.3.5c0-.27,0-.67.05-1.2s0-.93,0-1.2a8.53,8.53,0,0,0-2.1.4q.7-10.3.7-18.8l-.7-34.5q0-9.8,1-20.1A17.22,17.22,0,0,1,123.5,163.52ZM139.4,213l.7-47.6V165h-4.7l-12.4-.5h-.4v.2a174.57,174.57,0,0,0-.9,19l.7,35.2q0,8.4-.6,16.8a16.67,16.67,0,0,1,2.3-.2l10,.4q4.8,0,5.9-1.1Q139.4,224,139.4,213Z"/><path d="M151.6,213.42l11.5.2a6.3,6.3,0,0,0,.3,2h1.7q0,2.5,1.1,3.45a4.93,4.93,0,0,0,3.3,1,5.74,5.74,0,0,0,3.7-1.2,3.56,3.56,0,0,0,1.5-2.85,8.43,8.43,0,0,0-.3-2.55,3.17,3.17,0,0,0-1-1.5c-.5-.4-.93-.73-1.3-1a6,6,0,0,0-1.8-.75l-1.8-.5q-.55-.15-2.05-.4a17.83,17.83,0,0,1-1.8-.35l-1.5-.3q-4.7-1-9.3-5.6a21.94,21.94,0,0,1-.2-32,23.21,23.21,0,0,1,16.9-6.65,28,28,0,0,1,17.5,5.65,18.09,18.09,0,0,1,7.4,15.15,31.35,31.35,0,0,1-.6,5.7H194a55,55,0,0,1-8.65.7,28.12,28.12,0,0,1-7.75-1,6.55,6.55,0,0,0,.1-1.5,8.75,8.75,0,0,1-2.1-.5,5.23,5.23,0,0,0,.1-1.3q0-3.5-3.8-3.5a5,5,0,0,0-3.4,1.2,3.55,3.55,0,0,0-1.4,2.75,7.14,7.14,0,0,0,.2,2.1,1.38,1.38,0,0,0,.7.8,6.34,6.34,0,0,0,.8.35,5.6,5.6,0,0,0,2.1.3,28.79,28.79,0,0,1,16.7,9q7.3,7.55,7.3,16.9a20.59,20.59,0,0,1-6.4,15.5,22.18,22.18,0,0,1-16,6.15q-9.6,0-18.2-6.55t-8.6-15.75l.1-1.3v-1.4A39.76,39.76,0,0,1,151.6,213.42Zm10.5,1.2-10.1-.2a42,42,0,0,0-5.2.3v1.7q0,8.8,7.55,14.1a28.18,28.18,0,0,0,16.55,5.3,21,21,0,0,0,15-5.65q6-5.65,6-14.8a21.51,21.51,0,0,0-6.3-15.6,24.17,24.17,0,0,0-14.8-7.45q-6.7-.7-6.7-5.9a5.15,5.15,0,0,1,1.7-4.15,6.39,6.39,0,0,1,4.3-1.45,7.57,7.57,0,0,1,4.7,1.6,5,5,0,0,1,2.1,4.2,4.65,4.65,0,0,1-.1,1.2,25.16,25.16,0,0,0,6.65.9,54.47,54.47,0,0,0,8.35-.8h.1a27.58,27.58,0,0,0,.5-4.7q0-8.9-6.35-13.35t-15.85-4.45a21.94,21.94,0,0,0-16,6.3,20.71,20.71,0,0,0-6.45,15.4,22.06,22.06,0,0,0,3.55,11.6,14,14,0,0,0,10,6.9l2.35.45q1.85.35,2.55.55l2.3.65a12.67,12.67,0,0,1,2.35.85,21.24,21.24,0,0,1,1.85,1.15,7.1,7.1,0,0,1,1.7,1.55,8.44,8.44,0,0,1,1.3,4.7,4.88,4.88,0,0,1-1.8,4.1,7.18,7.18,0,0,1-4.55,1.4,7.83,7.83,0,0,1-4.9-1.65A6.16,6.16,0,0,1,162.1,214.62Z"/><path d="M201.8,213.42l11.5.2a6.29,6.29,0,0,0,.3,2h1.7q0,2.5,1.1,3.45a4.93,4.93,0,0,0,3.3,1,5.74,5.74,0,0,0,3.7-1.2,3.56,3.56,0,0,0,1.5-2.85,8.44,8.44,0,0,0-.3-2.55,3.17,3.17,0,0,0-1-1.5c-.5-.4-.93-.73-1.3-1a6,6,0,0,0-1.8-.75l-1.8-.5q-.55-.15-2-.4a17.83,17.83,0,0,1-1.8-.35l-1.5-.3q-4.7-1-9.3-5.6a21.94,21.94,0,0,1-.2-32,23.22,23.22,0,0,1,16.9-6.65,28,28,0,0,1,17.5,5.65,18.09,18.09,0,0,1,7.4,15.15,31.35,31.35,0,0,1-.6,5.7h-.8a55,55,0,0,1-8.65.7,28.12,28.12,0,0,1-7.75-1,6.56,6.56,0,0,0,.1-1.5,8.75,8.75,0,0,1-2.1-.5,5.24,5.24,0,0,0,.1-1.3q0-3.5-3.8-3.5a5,5,0,0,0-3.4,1.2,3.55,3.55,0,0,0-1.4,2.75,7.14,7.14,0,0,0,.2,2.1,1.38,1.38,0,0,0,.7.8,6.28,6.28,0,0,0,.8.35,5.6,5.6,0,0,0,2.1.3,28.79,28.79,0,0,1,16.7,9q7.3,7.55,7.3,16.9a20.59,20.59,0,0,1-6.4,15.5,22.18,22.18,0,0,1-16,6.15q-9.6,0-18.2-6.55t-8.6-15.75l.1-1.3v-1.4A39.76,39.76,0,0,1,201.8,213.42Zm10.5,1.2-10.1-.2a42,42,0,0,0-5.2.3v1.7q0,8.8,7.55,14.1a28.18,28.18,0,0,0,16.55,5.3,21,21,0,0,0,15-5.65q6-5.65,6-14.8a21.51,21.51,0,0,0-6.3-15.6,24.17,24.17,0,0,0-14.8-7.45q-6.7-.7-6.7-5.9a5.15,5.15,0,0,1,1.7-4.15,6.39,6.39,0,0,1,4.3-1.45,7.57,7.57,0,0,1,4.7,1.6,5,5,0,0,1,2.1,4.2,4.65,4.65,0,0,1-.1,1.2,25.16,25.16,0,0,0,6.65.9,54.47,54.47,0,0,0,8.35-.8h.1a27.58,27.58,0,0,0,.5-4.7q0-8.9-6.35-13.35t-15.85-4.45a21.93,21.93,0,0,0-15.95,6.3,20.7,20.7,0,0,0-6.45,15.4,22.06,22.06,0,0,0,3.55,11.6,14,14,0,0,0,10,6.9l2.35.45q1.85.35,2.55.55l2.3.65a12.68,12.68,0,0,1,2.35.85,21.24,21.24,0,0,1,1.85,1.15,7.08,7.08,0,0,1,1.7,1.55,8.44,8.44,0,0,1,1.3,4.7,4.88,4.88,0,0,1-1.8,4.1,7.18,7.18,0,0,1-4.55,1.4,7.83,7.83,0,0,1-4.9-1.65A6.16,6.16,0,0,1,212.3,214.62Z"/><path d="M293.3,221.82l.1.9a14,14,0,0,0,1.9-.1v1.2q.2,3,.2,6.2a34.19,34.19,0,0,1-1.2,8l-26.2.3q-8.9,0-16.6-.6v-1.9l-2-.1-.6-44.3q0-12.6.8-26,18.7-.9,35-.9,7.9,0,8.3,1.2a1.51,1.51,0,0,0,1,1.45c.67.3,1,.48,1,.55a30.66,30.66,0,0,1,.4,5.2l-.4,10a57.71,57.71,0,0,1-12.9,1.2h-3.6l-3.9-.1q-3,0-6.2.3l-.3,7.2v.9l1.8.1,3.9-.1q.5,0,5,.3,0,1.9.9,1.9l1.1.1a32.7,32.7,0,0,1,.5,6.1l-.2,9.5a28.16,28.16,0,0,1-7.25.85q-4.45.05-4.95.15a25.2,25.2,0,0,0-.3,4.55q0,3.05.1,4.35,12,.6,16.7.6t7.9-.2ZM265,235.32l26.5-.3a28.53,28.53,0,0,0,1-7q0-3.1-.2-6.1v-.2q-1.5.1-4.3.1l-21.9-.6-.1-.1a42.1,42.1,0,0,1-.4-6.45,34.45,34.45,0,0,1,.4-6q.6-.5,5.35-.5a26.38,26.38,0,0,0,6.75-.6l.1-8.7a32.83,32.83,0,0,0-.3-5.2v-.1q-6.9,0-12.3-.3l-.1-.1a15,15,0,0,1-.4-3.8l.3-7.9a45.2,45.2,0,0,1,7.1-.3h7.9a53.33,53.33,0,0,0,11.6-1V180l.3-9.5a37.85,37.85,0,0,0-.3-4.7q0-.3-11.45-.3t-30,.9q-.6,9.7-.6,24l.5,44.4Q256.4,235.32,265,235.32Z"/><path class="cls-1" d="M337.51,213.31a8.59,8.59,0,0,0-2.22.87,8.46,8.46,0,0,0-1.9,1.45q-1.74,1.78-3.35,3.7c-.7.84-1.42,1.66-2.13,2.48q.2,11.68.29,13.42a15.09,15.09,0,0,0,3.11-.88,15.31,15.31,0,0,0,3.71-2.15,14.17,14.17,0,0,0,3-3.17l3.47-.22.14-15.34a7.17,7.17,0,0,0-1.73-.36A7.79,7.79,0,0,0,337.51,213.31Z"/><path class="cls-1" d="M307.21,222.22a11.24,11.24,0,0,1,2.72-2.22,12.87,12.87,0,0,1,3.3-1.34l.55-.11c-.06-2-.09-3.93-.09-5.64q0-8.4.6-15.8l.3,1q.2.5.85,2.4T316.7,204l1.3,3.35q1.7,3.7,2.5,3.7t3.2-6.75q2.5-6.75,3.1-7.85.73,6,1,19.1a32.6,32.6,0,0,1,2.62-2.76,12,12,0,0,1,2.89-2.24,12.75,12.75,0,0,1,3.38-1.3,12.3,12.3,0,0,1,3.6-.27,11,11,0,0,1,1.35.19l.05-5.61q.2-2.2.2-9.8l-.2-20.5q0-5.1.1-7.6l-13.2.5a6.35,6.35,0,0,1-1.6-.1q-1.5,2-3.55,8.85t-2.35,6.75q-.7,0-2-3.3t-2.85-7.2a22.8,22.8,0,0,0-2.3-4.9h-.1q-1.1.1-3.5.1l-3.6-.1h-1.6a17.71,17.71,0,0,0-4.9.5q-.3,25.6-.3,47.1t.7,21.5H301l4.2-9.9A11.34,11.34,0,0,1,307.21,222.22Z"/><path class="cls-1" d="M355.86,231.79a7.6,7.6,0,0,0-1.35.4,7.44,7.44,0,0,0-1.24.65,12.16,12.16,0,0,0-1.31,1l-7.17,6.09-1.08.94-1.08.94a26.22,26.22,0,0,1-6.73,3.91,28.17,28.17,0,0,1-7.56,1.87q-.73.07-1.44.09l-1.43.06-9.39.6a12.21,12.21,0,0,0-1.63.2,7.61,7.61,0,0,0-1.35.4,7.52,7.52,0,0,0-1.25.65,12.34,12.34,0,0,0-1.31,1l-7.17,6.09,9.71,4.12a37.33,37.33,0,0,0,9.8,2.69,38.29,38.29,0,0,0,9.82,0,37.78,37.78,0,0,0,17.82-7.21,38.3,38.3,0,0,0,7-6.85,37.38,37.38,0,0,0,5.18-8.75l4.12-9.71-9.39.6A12.17,12.17,0,0,0,355.86,231.79Z"/><path class="cls-1" d="M325.79,208.52a11.83,11.83,0,0,1-.5,1.4l-.5,1.15q-.2.45-.45,1t-.45.85a3.07,3.07,0,0,1-.5.65,1.44,1.44,0,0,1-1,.5q-.8,0-2-2-1.5-.1-3.6-5.1-.1,2.4-.1,9.1c0,.65,0,1.37,0,2.14l.21,0,8.07.62c.62-.7,1.22-1.41,1.82-2.13q0-7.8-.13-10.52Q326,207.82,325.79,208.52Z"/><path class="cls-1" d="M359.14,227.7a8.33,8.33,0,0,0,3.82-1.13,6.22,6.22,0,0,0,2.52-3l-20.87-8.85-.13,13.93Z"/><line x1="341.46" y1="228.82" x2="344.48" y2="228.63"/><path d="M344.61,214.7l-2.4-1c-.2-.08-.4-.13-.61-.2"/><path d="M300.59,235.32q-.7,0-.7-21.5t.3-47.1a17.71,17.71,0,0,1,4.9-.5h1.6l3.6.1q2.4,0,3.5-.1h.1a22.8,22.8,0,0,1,2.3,4.9q1.5,3.9,2.85,7.2t2,3.3q.3.1,2.35-6.75T327,166a6.35,6.35,0,0,0,1.6.1l13.2-.5q-.1,2.5-.1,7.6l.2,20.5q0,7.6-.2,9.8l-.05,5.61a11.16,11.16,0,0,1,2.21.67l.8.34,0-4.52q.2-2.1.2-9.3l-.2-21.1q0-6.1.1-8.6h-2.1l.1-2-13.8.5a17.19,17.19,0,0,1-2.4-.2q-3,4.1-5.2,13.8-.3-.7-1-2.8t-1.65-4.55a13.72,13.72,0,0,0-2.45-4.15l-.6.1q-.7-1.1-1.4-2.1-1.1.1-2.9.1l-6.1-.2a19.23,19.23,0,0,0-6.1.9q-.3,25.7-.3,47t.45,22.3q.45,1,1.25,1l.42-1Z"/><path d="M316.7,216q0-6.7.1-9.1,2.1,5,3.6,5.1,1.2,2,2,2a1.44,1.44,0,0,0,1-.5,3.07,3.07,0,0,0,.5-.65q.2-.35.45-.85t.45-1l.5-1.15a11.83,11.83,0,0,0,.5-1.4q.2-.7.9-2.4.08,2.72.13,10.52l.82-1,.15-.17q-.27-13.1-1-19.1-.6,1.1-3.1,7.85T320.5,211q-.8,0-2.5-3.7L316.7,204q-.6-1.55-1.25-3.45t-.85-2.4l-.3-1q-.6,7.4-.6,15.8c0,1.71,0,3.6.09,5.64a18.16,18.16,0,0,1,2.93-.4C316.7,217.38,316.7,216.67,316.7,216Z"/><path d="M335,232.21a15.31,15.31,0,0,1-3.71,2.15,15.09,15.09,0,0,1-3.11.88v.08l6.3-.1h3.6q1.1,0,3.3.2l.06-6.6L338,229A14.17,14.17,0,0,1,335,232.21Z"/><path d="M326.83,216.63c-.6.71-1.2,1.42-1.82,2.13l-8.07-.62-.21,0c0,1.24.06,2.64.12,4.19q2.46.07,4.94.33t5,.46l.09-.11c0-.91,0-1.84,0-2.82C326.84,218.94,326.83,217.75,326.83,216.63Z"/><path d="M336.69,209.21a12.75,12.75,0,0,0-3.38,1.3,12,12,0,0,0-2.89,2.24,32.6,32.6,0,0,0-2.62,2.76c0,.9,0,1.81.05,2.75q0,1.88.06,3.55c.71-.82,1.43-1.64,2.13-2.48q1.61-1.93,3.35-3.7a8.46,8.46,0,0,1,1.9-1.45,8.59,8.59,0,0,1,2.22-.87,7.79,7.79,0,0,1,2.36-.19,7.17,7.17,0,0,1,1.73.36l0-4.35a11,11,0,0,0-1.35-.19A12.3,12.3,0,0,0,336.69,209.21Z"/><path d="M370.75,229.33a4.43,4.43,0,0,0-1-1.33,4.75,4.75,0,0,0-1.46-1,10.49,10.49,0,0,0,1-1.86,4.16,4.16,0,0,0,0-3.21,4.37,4.37,0,0,0-.87-1.36,4,4,0,0,0-1.38-1l-22.48-9.53,0,4.56,20.87,8.85a6.22,6.22,0,0,1-2.52,3,8.33,8.33,0,0,1-3.82,1.13l-14.66.93-.09,9.89a45.53,45.53,0,0,0-6.4-.4l-8.8.2a16,16,0,0,1-.1-2.1l-1.9.1c0-.29,0-.62,0-.94h0a14.4,14.4,0,0,1-4.32-.21l-16.14,13.74a8.33,8.33,0,0,1-3.53,1.84,6.22,6.22,0,0,1-3.91-.42l5-11.85c-2.1-.27-3.16-1-3.16-2.17h-.5l-5.25,12.38a4,4,0,0,0-.33,1.64,4.35,4.35,0,0,0,.32,1.58,4.16,4.16,0,0,0,2.26,2.28,10.44,10.44,0,0,0,2,.64,5,5,0,0,0-.4,1.69,4.08,4.08,0,0,0,2.53,4l9.71,4.12a41.17,41.17,0,0,0,10.88,3A42.23,42.23,0,0,0,360.89,252a41.17,41.17,0,0,0,5.75-9.7l4.12-9.71a4.12,4.12,0,0,0,.35-1.71A3.94,3.94,0,0,0,370.75,229.33Zm-8,11.36a37.38,37.38,0,0,1-5.18,8.75,38.3,38.3,0,0,1-7,6.85,37.78,37.78,0,0,1-17.82,7.21,38.29,38.29,0,0,1-9.82,0,37.33,37.33,0,0,1-9.8-2.69l-9.71-4.12,7.17-6.09a12.34,12.34,0,0,1,1.31-1,7.52,7.52,0,0,1,1.25-.65,7.61,7.61,0,0,1,1.35-.4,12.21,12.21,0,0,1,1.63-.2l9.39-.6,1.43-.06q.71,0,1.44-.09a28.17,28.17,0,0,0,7.56-1.87,26.22,26.22,0,0,0,6.73-3.91l1.08-.94,1.08-.94,7.17-6.09a12.16,12.16,0,0,1,1.31-1,7.44,7.44,0,0,1,1.24-.65,7.6,7.6,0,0,1,1.35-.4,12.17,12.17,0,0,1,1.63-.2l9.39-.6Z"/><path d="M310.39,225a7.78,7.78,0,0,1,1.83-1.5,8.51,8.51,0,0,1,1.71-.75c-.06-1.49-.11-2.89-.14-4.23l-.55.11a12.87,12.87,0,0,0-3.3,1.34,11.09,11.09,0,0,0-4.72,5.41l-4.2,9.9,4.56.06,3.53-8.32A7.19,7.19,0,0,1,310.39,225Z"/><path d="M341.64,209.12l0,4.35c.2.07.41.12.61.2l2.4,1,0-4.56-.8-.34A11.16,11.16,0,0,0,341.64,209.12Z"/><path d="M301.09,236.32c0,1.18,1.06,1.9,3.16,2.17l1.32-3.11-4.56-.06-.42,1h.5Z"/><path d="M327.79,215.51l-.15.17-.82,1c0,1.12,0,2.31,0,3.58,0,1,0,1.91,0,2.82.35-.4.69-.81,1-1.21q0-1.68-.06-3.55C327.83,217.32,327.81,216.41,327.79,215.51Z"/><path d="M313.78,218.56c0,1.34.08,2.74.14,4.23.16-.05.32-.12.49-.17a8.5,8.5,0,0,1,2.38-.28h0c-.06-1.55-.1-2.95-.12-4.19A18.16,18.16,0,0,0,313.78,218.56Z"/><path d="M328.2,235.32v-.08q-.52.09-1,.14c0,.32,0,.64,0,.94l1.9-.1a16,16,0,0,0,.1,2.1l8.8-.2a45.53,45.53,0,0,1,6.4.4l.09-9.89-3,.19"/><path d="M56.76,102.13a17.29,17.29,0,0,1,6.72-2.24,18,18,0,0,1,13,3.51,17.3,17.3,0,0,1,4.68,5.32,17.71,17.71,0,0,1,1.74,13.55L71.77,163.44,30.62,152.28a17.71,17.71,0,0,1-10.83-8.34,17.3,17.3,0,0,1-2.24-6.72,18,18,0,0,1,3.51-13,17.3,17.3,0,0,1,5.32-4.68,17,17,0,0,1,4.83-1.94,17.54,17.54,0,0,1,4.6-.39,24.6,24.6,0,0,1,4.58.67q2.31.56,4.79,1.28l1.41.41L47,118q.65-2.48,1.31-4.74A23.42,23.42,0,0,1,50,109a16.51,16.51,0,0,1,6.75-6.89Z"/></svg>