<?xml version="1.0" encoding="utf-8"?>
<!-- Generator: Adobe Illustrator 21.0.0, SVG Export Plug-In . SVG Version: 6.00 Build 0)  -->
<svg version="1.1" id="Layer_5" xmlns="http://www.w3.org/2000/svg" xmlns:xlink="http://www.w3.org/1999/xlink" x="0px" y="0px"
	 viewBox="0 0 1000 768" style="enable-background:new 0 0 1000 768;" xml:space="preserve">
<style type="text/css">
	.st0{fill:#CC3366;}
	.st1{font-family:'Champagne&Limousines-BoldItalic';}
	.st2{font-size:101.5575px;}
	.st3{fill:#FF6699;}
	.st4{font-family:'SegoeUIEmoji';}
	.st5{font-size:67.705px;}
	.st6{fill:#FF79A6;}
	.st7{font-size:135.41px;}
</style>
<g>
	<text transform="matrix(0.9995 -3.057339e-02 3.057339e-02 0.9995 352.8007 663.4868)" class="st0 st1 st2">KISSEM</text>
	<text transform="matrix(0.9998 -1.753594e-02 1.753594e-02 0.9998 357.076 233.3093)" class="st0 st1 st2">LOVEM</text>
	<text transform="matrix(0.9998 -1.753594e-02 1.753594e-02 0.9998 353.6324 229.9835)" class="st3 st1 st2">LOVEM</text>
	<text transform="matrix(0.9995 -3.057339e-02 3.057339e-02 0.9995 349.313 660.2072)" class="st3 st1 st2">KISSEM</text>
	<text transform="matrix(0.9778 0 0 1 467.665 359.4229)" class="st3 st4 st5">â™¡</text>
	<path class="st3" d="M388.3,405.1"/>
	<g>
		<g>
			<g>
				<g>
					<g>
						<path class="st6" d="M513.8,359.7c-0.1-0.9-0.3-1-0.3-0.4c-0.1,0.3-0.1,0.8,0,1.5c0,0.4,0,0.8,0.1,1.2c0.1,0.5,0.1,1,0.2,1.6
							c0.3,1.1,0.8,2.1,1.2,3.1C514.3,364.4,513.9,362.1,513.8,359.7z"/>
						<path class="st6" d="M522.7,389.5c3,4.7,7.1,9.6,5.6,6.3c-1.7-2.1-2.7-3.5-3.7-5c-1-1.5-2-2.9-3.7-5.4
							c-2.3-4.1-3.3-7.5-2.8-6.9c-0.2-0.4-0.5-1-0.8-1.7c-0.3-0.7-0.6-1.6-0.9-2.5c-0.3-0.9-0.6-1.8-0.9-2.7
							c-0.3-0.9-0.6-1.6-0.8-2.2c1,6,4.2,13.3,8.6,20.1C524,391.2,523,389.8,522.7,389.5z"/>
						<path class="st6" d="M880,678.7l-2.5-1.7C878.2,677.5,879.1,678.1,880,678.7z"/>
						<path class="st6" d="M938.3,485.8c0,2.2,0.1,3.1,0.1,3.2C938.4,487,938.3,485.3,938.3,485.8z"/>
						<path class="st6" d="M939,436.9c0,1,0,1.9,0,2.9C939,438.7,939.1,437.6,939,436.9z"/>
						<path class="st6" d="M880,678.7l6.3,4.3C887,683.1,883.2,680.7,880,678.7z"/>
						<path class="st6" d="M563.5,438.1c-1.1-1.1-2.1-2-3-2.9c0.9,0.9,1.8,1.8,2.7,2.8C563.3,438,563.3,438,563.5,438.1z"/>
						<path class="st6" d="M774.4,609.5l-1.9-1.3c-0.6-0.3-1.2-0.6-1.7-0.9L774.4,609.5z"/>
						<path class="st6" d="M695.3,553.4c1.7,1.3,2.7,1.3,3.5,1.6c-1.1-0.5-2.5-1.4-4.1-2.5C694.7,552.5,694.8,552.8,695.3,553.4z"/>
						<path class="st6" d="M577.3,455l-2-1.8C575.8,453.6,576.7,454.4,577.3,455z"/>
						<path class="st6" d="M831.9,648.3c0.1,0.2,0.3,0.4,0.6,0.7C832.6,648.9,832.3,648.7,831.9,648.3z"/>
						<path class="st6" d="M448.5,449.9C448.4,449.9,448.5,449.9,448.5,449.9C448.9,449.5,449,449.3,448.5,449.9z"/>
						<path class="st6" d="M512.6,360.7l-0.1,1.6c0.1,0.2,0.2,0.4,0.3,0.4L512.6,360.7z"/>
						<path class="st6" d="M939.7,347.4c0,0.2,0,0.2,0,0.4C939.8,350.1,939.8,348.8,939.7,347.4z"/>
						<path class="st6" d="M398.8,57.3c9.3,0.5-15.1,0.6-1.1,1.2C396.4,58.3,410.4,57.6,398.8,57.3z"/>
						<path class="st6" d="M565.1,439.9c0.9,0.9,1.9,1.9,2.8,2.8C566.7,441.5,565.8,440.6,565.1,439.9z"/>
						<path class="st6" d="M397.7,58.5L397.7,58.5l1.4,0.1C398.5,58.6,398.2,58.5,397.7,58.5z"/>
						<path class="st6" d="M939.4,141.2c-0.1,0.4-0.2,1.2-0.2,2.1C939.2,143.2,939.3,142.7,939.4,141.2z"/>
						<path class="st6" d="M938.6,294.8l0.1-3.8C938.6,292.5,938.6,293.7,938.6,294.8z"/>
						<path class="st6" d="M934.9,61.1c-0.9-0.8-1.5-1.3-2.3-1.8c-0.8-0.4-1.8-0.9-3.4-1.2c0.3,0.1,0.6,0.2,1,0.3
							c0.3,0,0.6,0.1,0.9,0.3c0.3,0.1,0.7,0.3,1.1,0.5C933,59.6,933.9,60.2,934.9,61.1z"/>
						<path class="st6" d="M851.4,58c0.4,0,1,0.1,1.5,0.1c0.8,0,1.8,0,2.6,0L851.4,58z"/>
						<path class="st6" d="M249.6,604.1c1.6-0.9,2.6-1.4,3.4-1.7C251.8,602.7,261.8,595.8,249.6,604.1z"/>
						<path class="st6" d="M563.3,438.3c0.4,0.2,1,0.7,1.9,1.6c-0.7-0.7-1.3-1.3-1.9-2C563,437.9,562.9,437.9,563.3,438.3z"/>
						<path class="st6" d="M929.8,63.1c-0.7-0.3-1.5-0.5-2.3-0.6l-0.6,0l-0.8,0l-1.6,0l-6.6,0c1.8,0,4,0,6.2,0.1c0.6,0,1.1,0,1.7,0
							c0.5,0,1.2,0,1.6,0C928.2,62.5,929.1,62.7,929.8,63.1z"/>
						<path class="st6" d="M86.2,308.5l0.1,3C86.3,310.4,86.3,309.3,86.2,308.5z"/>
						<path class="st6" d="M878.7,62.5c-2.4-0.2-4.9-0.3-7.4-0.4c-0.5,0-1.2,0.1-1.5,0.1L878.7,62.5z"/>
						<path class="st6" d="M253.1,602.3C253.1,602.4,253.1,602.4,253.1,602.3C253.1,602.4,253.1,602.4,253.1,602.3z"/>
						<path class="st6" d="M323.3,551.2c-10.2,7.4-4.3,4.1-6.2,6c-12,9-5.9,3.6-10.3,6.3c-7.5,5.6-13,10.3-18.7,14.3
							c-0.5,0.2-1.6,0.9-0.4-0.1c-7.7,6.2-24.1,16.8-33.2,23.9c-0.7,0.4-1.1,0.6-1.3,0.7c1.8-0.7,2.2-0.6,2-0.2
							c-4.6,3.2-8.4,6.3-10.4,7.1c2.9-1.9,3-2.2,4.2-3.3l-4.8,3.5c-4.8,2.4,6.5-4.7,6.2-5.1c-9.4,6.7-20.2,14.6-27.6,19.3
							c-1.9,0.5,17-11.7,6.9-5.6l11.5-7.4c-9.2,4.9,6.9-4.6-1.7-0.2c-15,9.9-16.5,11.5-31.5,21.2c-3.2,2.5,1.4-0.3-1.7,2.3
							c-20.9,14.5-17.7,9.5-32.9,20.5c-3.8,3-4.9,4.8-16.4,11.5l3.4-3.1c-14.7,9.3-7.8,6.3-23.5,15.5c2.6-2,11.4-7.5,9.2-6.2
							c-10.3,5.8-6.8,4.8-14.5,9.6l-2,0.4c-7.8,5-16,10.2-24.4,15.5c-4.2,2.6-8.5,5.3-12.8,8l-0.8,0.5l-0.7,0.4l-0.7,0.3
							c-0.2,0.1-0.5,0.2-0.7,0.2c-0.9,0.2-1.7,0.1-2.3-0.3c-0.6-0.4-1.1-1.2-1.3-2.1c-0.1-0.5-0.2-1-0.2-1.5c0-0.5,0-1.3,0-1.9
							c0.1,0.5,0.2,1.8,0.3,2.1c0.1,0.2,0.1,0.2,0.2-0.1c0-0.2,0.1-0.9,0.1-2.1c-0.3-25.9,0.1-55.2,0.5-80.2l-0.6-9.5
							c0-2.2,0.3-4.1,0.4-1.7c0.2-9.7-0.4-0.5-0.6-5.2c0-5.5,0.3-7.3,0.5-3.8c-0.5-17.2-1.1-48.9-0.4-67l0.2,3.5
							c0.2-14.1-1.2-15.9-0.7-28.9l0.1,2.5c0.3-30.6-0.3-64.3,0.6-87.6c-0.8-4.4,0.4-30.2-0.8-32.2c0.6-17.4,0.8-12.4,1.2-37
							c0.1-6.6-0.7-9.8-0.9-17.9l0.6-0.2l-0.6-11l0.7-5.9l-0.2-7.6c0,3-0.3,6.4-0.5,6c-0.1-5.9,0-13.2,0.1-19
							c0.2-5.8,0.4-10.1,0.6-10.3L86,260.2c0.2,0.6,0.3,5.3,0.5,9.1c-0.6-15,0.6-2.7,0.1-16.5c-0.1,1.8-0.4-1-0.5-1.3
							c0.4-6.9,0.4-22.5,0.2-34l0.4,2.2c0.1-20.9-0.2-44-0.2-67.4c-0.2,8.4-1,6.5-1-0.4l0.7-2.7c-0.4-4.4-0.3,7.2-0.7-1.9
							c0.1-8.7,0.8-5.9,1-0.9l-0.2-10.6c0.2-0.6,0.3,1.9,0.5,2.5c-0.4-4.4,0.7-18.3,0.1-24.6l0.2-0.6c0.1-11.7,0-20.2,0-28.2
							c0-4,0-7.8,0-11.9c0-1,0-2,0-3.1c0-0.3,0-0.4,0-0.6c0-0.2,0-0.4,0.1-0.6c0-0.4,0.1-0.8,0.2-1.1c0.5-1.5,1.4-2.9,2.9-3.9
							c0-0.3,1.1-1.4,3.2-1.7c0.2-0.1,0.5-0.1,0.8-0.1c0.3,0,0.7,0,1,0c0.7,0,1.5-0.1,2.2-0.1c1.5-0.1,3-0.1,4.5-0.3
							c14,0.2,29.6,0.6,46.4,0.6c11.9-0.3,3.5-0.5,8.8-0.8c0.9,0.5,17.7,0.5,9,0.8c20.3-0.1,25.9-0.1,51.5-0.5
							c-2.8-0.2-5.9-0.3-4.3-0.5c4.6-0.1,10.6,0.2,9.9,0.5l-1.2,0.1c28.8-0.8,66.4,1.5,89.3,0.4l-1.3,0.1l23.7-0.6
							c10.9,0.1-6.6,0.4,1.5,0.7c25.6-0.9,40.5,0.1,61.6-0.4c16.3,1.5,57.9-0.1,80,0.9l-1.3-0.4c5.7-0.3,6.9,0.2,11.1,0.3
							c-0.6-0.3-6.2-0.3-2.6-0.5c48.3-0.4,99.6,0.5,149.1,0.8c18.1,0.1,10.3-1.8,33.1-1l-6.5,0.7c36.5-0.8,74.7,0,110.4-0.6
							c-2.1,0.2-2.2,0.4-5.7,0.3c3.8,0.2,10.8,0.2,16.8,0.1c3-0.1,5.8-0.1,7.9-0.2c2-0.1,3.3-0.2,3.4-0.3c5.6,0,1.3,0.4,4.7,0.6
							c7.6,0.3,19-0.6,23-0.1c0.7,0.1-2.1,0.2-3.5,0.2c4.9-0.2,23,0.1,18.3-0.5c13.4,0.3,25.7-0.2,36.4,0.1c7-0.6,23,0.3,25.2-0.6
							c-0.5,0.5,5.4,0.6,12.5,0.7c3.5,0,7.4,0,10.8-0.1c1.7,0,3.4-0.1,4.9-0.1c0.7,0,1.4,0,2.1-0.1c0.4,0,0.5,0,0.8,0
							c0.2,0,0.4,0,0.7,0c-0.6,0-0.5,0-0.1,0.2c0.4,0.1,1,0.3,1.7,0.6c1.2,0.6,2.1,1.5,1,0.9c1.5,0.9,2.6,2.4,3.1,3.8
							c0.2,0.7,0.4,1.5,0.4,2.2c0,1,0,1.8,0.1,2.6c0.1,3.2,0.3,5,0.5,4.2c-1.1,17.8,0.9,35.8-0.5,45.9c0.5,28.8,0.8,55.4,1,81.2
							c-0.9-0.9-0.1-28.6-1-27.5c0.4,24.5,1.1,38.7,0.9,63c-0.1,6.3-0.4-3.6-0.5-5.7c0.4,24.5-0.1,47.4,0.4,69.2
							c-0.1-0.1-0.2-2.4-0.2-4.6c0,4.3-0.1,10,0.3,9.5l-0.1-4.2c0.6-6.9,1.2,17.1,1.6,17.8c-1.2-7.3-0.3,21.5-1.8,10
							c0.1,2.8,0.3,6.4,0.5,5.7c-0.1,4.2-0.2,5.5-0.6,1.3c0.2,15.4,0.7,9.9,0.7,23.9c-0.2,0-0.3-2.9-0.5-4.3
							c0.4,7.1,0.8,14.2,0.6,26c-0.1-0.7-0.3,0.7-0.3-2.9c0.1,20.2,1,34.5,0.7,56.7c-0.9-6.6-0.3,7.6-1,8.7l0.2,11.9l0.4-4.8
							c0,10.5,0.5,19.7,0.3,28.7l-0.3-7.8l0.1,19.6l0.3-11.1c0.4,10.6,0.9-1.1,0.7,12.8c-0.1-2.8,0,10.5-0.4,15.9l0,0
							c0.2,5.2,0.5,10.5,0.3,18.2c-0.2,2-0.8-1.6-1-0.3c0.6,5.1,0.2,24.5,0.8,31c-0.2-2.2-0.5-2.3-0.6-1.6l0.5,4.3
							c-0.2,4.8-0.2,5.6-0.6,4.8c-0.1,14.6,0.9-4.6,0.5,12.7c0-1.4-0.1-0.7-0.2-3.5c-0.2,17.4,0.3,33.6,0.1,49.5
							c-0.8,4.7-0.2-14-0.8-8.6c0.1,23,0.9,47.7,0.7,70l0.1-4.2c0.5,1.5,0.4,5.7,0.2,10.9c-0.1,2.6-0.2,5.4-0.3,8.3
							c0,1.3-0.3,2.6-0.9,3.6c-0.6,0.9-1.6,1.5-2.7,1.5c1.1,0,1.6-0.6,1.8-0.9c0.2-0.3,0.1-0.4,0-0.2c-0.9,0.7-2.5,0.7-4,0
							c-0.4-0.2-0.7-0.4-1.1-0.6l-1.3-0.8c-0.8-0.5-1.7-1-2.5-1.5c-3.4-2.1-7-4.2-10.7-6.5c-7.5-4.5-15.9-9.5-25.8-15.6l2.6,1.3
							c-7.5-5-19.9-12.8-28-18.2c-2.6-1.3-7.2-4.4-4.6-2.2c-24.3-17.6-48.2-30.6-69.5-46.6c2.6,1.8,6.4,4.1,4.3,2.6l-18.8-12.5
							c1.2,1.4,2.3,1.9,6,4.9c-2.5-1.4-7.9-4.8-12.5-8c8.6,5.5,0.3-0.7-3.1-3.4c0.5,0.5-0.8-0.2-0.6,0.1c-9.2-7.4-2.2-0.4-15.1-10.1
							l0.8,0.3c-5-3.4-9.7-6.3-15-10.2c-1.9-2,5.4,3.5,6,3.4c-7.5-5.3-15.3-9.6-21.7-14.9c3.2,2.2,7.8,5.4,11,7.6
							c-7-5.8-7.9-6.2-13.3-10.3l0.5,0.4l-12.3-9.4l3.1,2.5c-10.1-5.6-18.9-13.6-31.7-22.2c12.5,8.4,2.3,1.1,3.6,1.3
							c-3-2.5-7.7-6.3-6.2-5.4c-6.1-4-9.4-7.7-17.9-13.5c-0.2-0.4-6.1-4.8-4.5-4.2c-7.5-5.8,1.5,1.7,0.8,1.4
							c-11.9-8.5-26.3-22.1-42.8-35.1c-7-5.8-11.1-9.2-15.2-12.4c-4-3.3-7.9-6.5-14.2-12.2c-2-2.1-1-1.4,0.5-0.2
							c1.5,1.2,3.4,2.9,3.4,2.9c-6.5-6.5-11.5-11.2-17.7-17.2c1.4,1.1,0.2-0.3-1.5-2.3c-2.4-2.5-3.4-3.2-4.4-4.1
							c-1.1-0.9-2.3-2.1-5.3-5.5c1.2,1,2.8,2.2,5.3,4.5c-5.7-5.8-11.4-11.5-17-17.8c-1.2-1.9,3.7,3.6,5.8,5.6
							c-3.2-3.5-7.2-8.1-10.6-12.2c-3.4-4.1-6.1-7.6-7.2-8.7c1.1,1.7,2.3,3.4,3.4,5c-2.1-2.7-0.7-1.7,0.9,0.3
							c5.2,6.2,7.2,9.2,7.3,9.7c-1.3-1.5-2.6-3-3.9-4.6c1.5,2.8,5.4,7.4,10,12.4c4.6,5,10,10.2,14.2,14.6c-1.4-1-2.7-2-4.1-3.1
							c3,2.8,6.1,5.6,9.2,8.4c1.7,2,2.7,3.6-1.6-0.5c5.9,6.4,5.7,5.2,10.7,10.7c0.5,0.6,0.2,0.4-0.3-0.1c2.1,1.9,4.2,3.8,6.3,5.6
							c-1.3-1,0.6,1.4-3.1-2.3c10.8,10.8,18.6,16.1,22.5,20.4l-1-0.8c8.1,6.8,8.6,7,8.6,6.8c0-0.3-0.4-1,5.8,3.9l7.2,8l2,0.9
							c1.7,1.4,5,4.2,4.2,3.9c6.5,4.8-0.9-1.1,3,1.6c7.8,7.1,22.7,17.9,24,20.1c3.3,2-7.7-6.5,1.3,0.2c1.9,2.8,10.3,7.8,17.7,14
							c-2.7-1.3-9.7-7.1-2.4-0.9c5.1,2.8,14.8,11.4,21.4,16.1c0.7-0.3,14.3,10.2,25.5,18c-0.9-0.3,20.5,15.2,30.7,22.7l-0.4-0.1
							c2.4,0.8,13,8.4,20.9,13.6c-0.6,0.2-2.1-0.7-6.4-3.4l7.3,5.1c1.9,1,4.2,2.5,9,5.7l-2.2-0.8c9.8,6.7,20.1,12.9,32.6,21.7
							c1,0-9.3-7.9,4.3,0.7c0.3,0.6,0.6,1.3-3-1c1.2,0.7,4.2,2.5,6.5,4.2l-5.6-3.2c5.7,4,3.2,1.7,7.8,4.8c-0.3,0.3,3.3,2.5,2.4,2.3
							c-1.2-0.8-4-2.8-5.8-3.9c5.2,3.5,11.4,7.9,13.3,9.5c-0.3-0.5,0.3-0.4,4.2,2c9.9,6.5,3.1,2.6,8.8,6.6c2.6,1.3,8.7,5.7,9.2,5.3
							c2.9,1.9,3.3,2.5,4.3,3.3c5.3,3.1,24.2,15.4,18.7,11.2l-1.3-0.9c0.3,0.2,0.5,0.3,0.9,0.5c0,0,0,0,0,0l0,0
							c8.6,5.2,17.4,10.8,26.2,16.5c4.4,2.8,8.8,5.6,13.1,8.4c2.2,1.4,4.4,2.7,6.5,4.1c1.1,0.7,2.2,1.3,3.2,2
							c1.1,0.6,2.1,1.3,3.4,1.9l-0.1,0.2c0.8,0.3,1.6,0.6,2.5,0.7c0.9,0.1,1.8,0,2.8-0.3c1.9-0.7,3-2.5,3.4-4.2
							c0.2-0.9,0.3-1.7,0.3-2.6l0-2.4c0-1.6,0-3.2,0-4.7c-0.1-6.2-0.1-12-0.4-16.2c0-3.5,0.4-8.3,0.6-6.8c-0.1-9.1-0.4-10.1,0-23.3
							c0.3,9.2,0.3-3.2,0.3,9.4c0.2-11.8,0.5-14.5-0.1-27.2c0.5,4.3,0.6-8.9,0.5-14.5l-0.4,8.3c-0.1-6.3,0-11.9,0-17.5l0.7,3
							c0.8-24.2-1.4-43.7,0-62.1c-0.5-6.4-0.3,13.2-0.9,7.4c0.1-11.1,1-22.7,1-26.2c0.4-15.3-1-14.2-0.7-30.2c-0.2,2-0.9,4-1.1-8
							c0.1-11.2,1-13.7,1.2-6.7c0,2.7-0.1,4-0.1,3.9c0.1,3.6,0.2,8.3,0.4,3.9l-0.2-1.4c0.2-5.5,0.2-20.9,0.6-17.3
							c-0.2-8.4-0.4-3.6-0.5,2.6c0.3-14.3,0-22.3,0.2-37.1c-0.1,2.3-0.4,4.5-0.4,2.2c0.3-21.6-0.5-9.5-0.6-24.1
							c0.4-8.3,0.9,3,0.6-11.7c0.2-9,0.6-1.9,0.8,1.7c-0.5-13.4,0.3-25.1,0.4-32.7l0.2,7.1c-0.1-4.2-0.1-7.7-0.1-11.2l-0.5,4
							c0.1-4.1,0.1-7.7,0.3-7.6c-0.3-4.3-0.8,3.3-1.2-5.2c0.2-5.5-0.3-16.8,0.4-18.8c-0.2,17.4,0.6-1.9,0.7,12.8
							c-0.1-2.8-0.1-6.3,0-10.5c0.1-0.6,0.1,0.6,0.2,1.7c0.6-16.6-0.7-7.7-0.7-24.9c0.4,2.2,0.7-4,0.6-6.8c0,7-0.6,3.3-0.9-3.1
							c0.3-11.1-0.2-12-0.2-17.8l-0.1,6.6c-0.4-2.2-0.3-7.8-0.4-15.5c0.3-0.7,0.2,7,0.3,4.3c-0.6-8.6,0.6-19.3,0.2-31.3
							c0.2-5.5,0.7-0.5,0.8-5.4c-0.5-13.4,0.5-14.5,0.1-28.6c-0.5,4.1-0.4,4.8-0.8-5.1l0.3,23.1l-0.7-14.8c0,7,0.3,14.7,0.2,18.9
							c-0.4-7.1-0.3-6.3-0.7-3c0.7-9.5-0.4-18.9,0.1-30l1.2,0.3c0.5-16.6-0.6-29.5-0.3-51l-0.2,6.9c-0.5-2.9-0.1-13.3-0.3-20.3
							c0.4,0.6,0.5-3.7,0.8-6.7c-0.3,0.4,0-15.8-0.8-17.7l0.5-9.6c0.2-17.4-1.1-19.9-1-36.6c0.4,5,0.7-2.6,1,8.6
							c0-5.6,0.1-10.6-0.2-10.7c0.1-0.8,0.1-2.2,0-3.9c0-0.8,0-1.8-0.1-2.7c0-0.9,0-2.1-0.3-3.3c-0.3-1.2-0.7-2.3-1.3-3.3
							c-0.6-1-1.3-1.9-2.1-2.7c-0.8-0.8-1.7-1.3-2.5-1.8c-0.8-0.5-1.6-0.8-2.3-1c-1.3-0.3-2.3-0.2-3.6-0.1c-1.3,0.1-3,0.2-6.2,0.2
							c-0.7-0.1,0-0.2,0-0.2c0,0.2-9.8,0.3-4.3,0.7c-17.2-1.2-48.1,0.1-63.1-1c-12.2,0.1-26.9,0.3-37.9,0.3c0.7-0.1,0-0.2,2.1-0.2
							c-15.3-0.4-9.4,1.1-26.7,0.7c-8.9-0.6,9.2-0.3,3.7-0.6c-2.4-1.3-21,0.2-32.6-0.6l2.8-0.1c-8.9-0.4-21.8,0.5-36.4,0.4
							c0,0,0.7-0.1,0.1-0.2c-10,0.7-28.9,0.9-42.9,1.1c4.4-0.5,6.4-0.3,3.7-0.8c-6.3,0.1,1.8,0.8-10.7,1c-4.1-0.3-13.1-0.5-14.3-1.1
							l11.8,0c-6.1-0.7-15.3,0-21.6-0.1l0.8-0.3c-18.2,0.1-18.4,0.9-37.9,0.8l2,0.2c-10.7,0.8-8.9-0.4-19.6,0.1l-3.2-0.8
							c-7,0.2-24.7,0.8-37.3,0.9c7.2-0.6,21.9-0.9,31.1-1.2c-7,0-23.7,0.1-27.3,0.4c2.8-0.1,6.4-0.3,9.1-0.1
							c-8.6,0.6-19.8,0.9-33.7,0.9c2.5-1.5-36.2-0.4-46.3-1.6c-24.6,0.6-48.8-0.2-77.4-0.2c10.2,1.2-8.4,0-6.6,1.3
							c-6.7,0.1-9.2,0.1-9.8,0l-20.2-0.7c-4.8-0.4,6.3-0.3,5.7-0.5c-14.6-0.1-6.1-0.5-15.8-0.8c2,0.4-5.1,0.6-13.4,0.5l11.7,0.6
							c-20.4,0.7-17.7-1-38.2-0.4l6.5-0.4c-10.6,0.2-39,0-49.3,1c-1.9-0.1-4.3-0.5,0.3-0.6c-25.2-0.1-56.2,1-75.8,0.4l1.9-0.3
							c-4.7,0.1-8.2,0.6-14.1,0.3c0.3-0.1,1.9-0.3-0.3-0.3c-2.5,0.1-12.5,0.5-18.8,0.3l5.3-0.3c-24.6-0.4-37.8,0.8-58.4,1
							c0.1-0.9-19.3-1.2-29-1.3l0.3-0.1c-0.4,0-0.9,0-1.3,0c-0.4,0-1,0-1.6,0c-1.1,0.1-2.2,0.3-3.3,0.7c-2.1,0.7-3.9,2-5.4,3.7
							c-1.4,1.6-2.4,3.6-2.9,5.6c-0.1,0.5-0.2,1-0.3,1.5c0,0.5-0.1,1.1-0.1,1.5c0,0.8,0,1.6,0,2.4c0.1,6.3,0.1,12.3,0.2,18.3
							c0.2,11.9,0.4,23.6,0.5,36.8c-0.5,8.2-0.7,22.2-0.7,37.4c0,15.2,0,31.7-0.3,44.9c0.2-4,0.7,0.7,0.8,5.4
							c-0.2,6.2,0.6,17.2-0.2,16.2l0-2.2c-0.8,4.7-0.6,17.5-0.6,27.4l1.1,1.6c-1.5,26.1,0.6,68.4-0.8,82.6
							c0.3,6.3,0.3,14.1,0.5,20.3l-0.6-0.3c-0.1,17.4-0.2,26.2-0.1,47.7l-0.4-4.4c0,12.2,1.6,15.4,1.7,26.6l-0.8,3.4
							c0,21.2-0.7,42.7,0,63.7c-0.1-0.3-0.4-1-0.4-4.4c0,10-0.6,38.6,0.6,35c-0.8,0.2-0.1,21.9,0.3,33.4l-0.6-1.8
							c0.7,9.7,0.9,10,1.1,23.5c-0.1,3.2-0.4,2.8-0.3-1.4c-0.3,10.7,0.5,8.3,0.2,21.2l-0.4-4.8c0,11,0.1,10.1,0.6,16.1
							c0.2,6.9-0.1,20.8-0.6,22.4c0.3,1.5,0.7,7.5,0.6,14c-0.2,0.9-0.3-1.5-0.4-2.7c-0.4,18.3,0.6,27.3,0.1,39.9
							c-0.2,0.3-0.3,1.1-0.3,2.1c0-14.6,0-26.3,0.1-25.2c-0.5,0-0.6,11.8-1.3,2.4c0.2,4.7,0.5,11.1,0.7,17.8c0.1,3.3,0.2,6.7,0.3,10
							c0,1.6,0,3.2,0,4.8c0,0.8,0,1.5,0,2.3c0,0.7,0,1.6,0.1,2.5c0,0.7,0.2,1.4,0.3,1.9c-0.2-0.5-0.3-1-0.4-1.5
							c0.2,1.6,1,3.3,2.4,4.6c1.4,1.3,3.3,1.6,4.8,1.5c1.3-0.1,2.3-0.4,3.2-0.8c0.5-0.2,0.8-0.4,1.3-0.6c0.3-0.2,0.7-0.4,1-0.6
							c1.3-0.7,2.5-1.5,4.1-2.4c1.4-0.3,11.7-6.8,16.7-9.9c-0.7-0.2,5.9-4.2-0.5-0.8c0.8-0.5-0.9,0.6-4.2,2.7
							c-0.7,0.5-1.6,1-2.1,1.4c0.1-0.1,0.2-0.2,0.3-0.3c-3.3,2-7.6,4.6-12.5,7.6c3.8-2.6,7.8-5.4,13.5-8.5c2.4-1.9,5-3.9,6.5-5.1
							c7.3-3.5,20.6-11.4,22.7-12.1c15-9.8,35.6-22.8,44.5-29.8c4.2-2.9,5.1-2.9,6.8-3.8c-2.4,1.7-5.4,3.6-6.6,4.6
							c8.4-5.8,25.2-16.6,26.9-18.6c10.9-6.8-5.6,4.6,9-5.3l-1.9,1.5c14.8-9.1,26.3-17.4,38.1-26c11.8-8.6,24-17.5,40.1-28
							c-2.2,1.5-3.3,2.2-3.9,2.4c36.3-24.8,72.9-53.6,107.1-80.2c9.7-7.7,10.4-8.9,15.9-14l2.4-1.3c3.1-3,6.2-6,9.3-8.9
							c6.7-6.2,12.8-11.2,19.2-16.8c6.4-5.6,13.2-11.7,20.9-20.4l-2.4,1.9c2.9-2.9,7.4-7.8,11-11.7c3.6-4,6.3-7.1,6-6.5
							c0.5-0.7,1.4-2.3,3.7-4.7l0.4,0c4.2-5.4,8.2-10.9,11.8-16.6c2.3-3.2,3.3-4.8,3.9-5.4c0.6-0.7,0.7-0.5,0.9-0.6
							c0.2-0.1,0.5-0.3,1.5-1.8c1-1.5,2.7-4.2,5.2-9.6c1.8-4,3.7-10,4.3-14.7c0.1-0.6,0.1-1.2,0.2-1.7c0-0.5,0.1-1.1,0.1-1.5
							c0.1-0.9,0.1-1.8,0-2.4c0-1.2-0.1-1.6-0.2-0.8c-0.1,1.8-0.4,4-0.8,5.8c-0.4,1.8-0.9,3.1-1.1,3.2c0.6-2.6,1-5.2,1.1-7.8
							c-0.4-0.7-0.8-2.6-1.3-1.9c-0.1,0.2-0.2,0.5-0.4,1c-0.2,0.5-0.2,1.3-0.5,2.3c-0.4,2-1.1,5-2.7,9.3c-1.2,4.1-2.8,8.2-4.6,12.2
							c-0.8,1.2-1.6,2.4-2.4,3.5c1.8-3.2,3.5-6.5,4.9-9.8c-1.4,2.8-2.6,5-3.6,7.1c-1,2.1-2,4-3,6c-0.7,0.8-1.9,2.3-3.4,4.4
							c-2.1,3.8-4.4,7.4-6.8,11.1c-1.3,1,3-5.1-2.5,1.7c-3.5,5,4.3-4.1-1.8,4c-2.2,2.3-3.1,3.1-3.9,4c-0.9,0.9-1.8,2-4.1,4.9
							c-0.9,0.6,0.1-0.6,1.9-3c-2,2.6-5,5.9-7.6,8.9c-2.7,3-5.1,5.6-6.1,7.1c-2.5,2.2-6.4,6.2-9.8,9.6c-3.4,3.3-6.2,5.9-6.2,5.3
							c-1.4,1.6-8,8.6-12.6,12.7c3.8-4.2-0.4-0.3-5.5,4.2c-5.1,4.5-11,9.6-10.2,8.2c-2.8,3.1-8.4,8-14.7,13.4
							c-6.3,5.4-13.4,11.1-18.9,15.9c0.6-0.6,1.8-1.7,2.8-2.5c-6.5,5.1-8.6,6.4-12.8,9.5c-0.3,1.3-10.4,9.4-15.6,14
							c-8.5,5.6,4.3-4.5,1.4-3.1c0.8,0.2-13.6,11.2-10.6,9.5c-6.5,4.3-5.5,3.8-9.1,5.7c-0.5,1.6-5.7,4.5-10.5,8.8
							c-9.3,6.3-2.9,1-12.6,8.5C314.6,558,323.3,551.2,323.3,551.2z M85.4,701.3C85.4,701.3,85.4,701.3,85.4,701.3
							c0,0.6,0,1.2,0,1.8c0,0.2,0,0.5,0,0.7c0,0.2,0.1,0.4,0.1,0.7c0.2,0.8,0.4,1.4,0.7,1.8c-0.2-0.4-0.5-0.8-0.7-1.6
							c-0.1-0.4-0.2-0.8-0.2-1.4C85.4,702.8,85.4,702.1,85.4,701.3z M85.4,676.7c0,3,0,6.7,0,10.7c-0.2,0.9-0.4-0.1-0.4-2.6
							C85.1,686.2,85.2,680.4,85.4,676.7z M104.9,703.1c-3.3,2.1-4.5,2.7-5,2.9c1.6-1,3.4-2.1,5.8-3.6c0.1-0.1,0.3-0.2,0.4-0.3
							C105.8,702.4,105.5,702.7,104.9,703.1z"/>
						<path class="st6" d="M110.5,698.8c0.5-0.3,0.7-0.5,1.4-0.9c-0.7,0.4-1.4,0.7-2.1,1.1c-0.4,0.3-0.8,0.6-1.1,0.9
							C109.4,699.6,110,699.2,110.5,698.8z"/>
						<path class="st6" d="M877.1,676.7l0.4,0.3c-0.4-0.3-0.7-0.5-0.9-0.7C877,676.6,877,676.6,877.1,676.7z"/>
						<polygon class="st6" points="86.5,336 86.3,336.1 86.5,338.2 						"/>
						<path class="st6" d="M765,600c-0.2-0.2-0.6-0.5-1.4-1.1C763.7,598.9,764.3,599.4,765,600z"/>
						<path class="st6" d="M717.2,566l-6.6-5C713.5,563.1,715.6,564.7,717.2,566z"/>
						<path class="st6" d="M681.2,538.9c-0.5-0.3-0.7-0.3-0.8-0.3c0,0,0,0,0.1,0.1L681.2,538.9z"/>
						<path class="st6" d="M934.8,297.9c0-0.6,0-1.2,0-1.7C934.7,292.1,934.7,294.9,934.8,297.9z"/>
						<path class="st6" d="M936.2,511.4c-0.1-2.3-0.2-4.5-0.3-6.9C935.8,508.4,935.8,511.3,936.2,511.4z"/>
						<path class="st6" d="M930.7,63.6C930.8,63.6,930.7,63.6,930.7,63.6c-0.3-0.2-0.6-0.3-0.9-0.5
							C930.1,63.2,930.5,63.4,930.7,63.6z"/>
						<path class="st6" d="M935.9,494.6c-0.1,3.8-0.1,7,0,9.9C935.9,501.4,936,497.8,935.9,494.6z"/>
						<path class="st6" d="M537.1,408l-1.3-1.7c0,0.1-0.1,0-0.2-0.2L537.1,408z"/>
						<path class="st6" d="M535.6,406.1c-0.5-0.6-1-1.2-1.5-1.9C534.8,405.1,535.4,405.9,535.6,406.1z"/>
						<path class="st6" d="M531.1,400.2c1,1.4,2,2.7,3,4C533.1,402.8,531.9,401,531.1,400.2z"/>
						<path class="st6" d="M577.1,452l0.6,0.3C577.4,452.1,577.2,451.9,577.1,452z"/>
						<path class="st6" d="M590.4,464.3c-3.2-2.9-7.7-7.7-12.1-11.7l-0.5-0.3C580,454,587.1,461.8,590.4,464.3z"/>
						<path class="st6" d="M646.5,515.2c-3.9-3.2-7.9-6.4-11.8-9.7c1.9,1.8,4.5,4.3-0.9,0C648.3,518,631,502.6,646.5,515.2z"/>
						<path class="st6" d="M683.7,544.3c-6.6-4.8-0.1,0.3-0.5,0.1C687.4,547.4,688.4,548.1,683.7,544.3z"/>
						<path class="st6" d="M938.3,669.3l0.5,0.8C938.7,663.8,938.6,670.1,938.3,669.3z"/>
						<polygon class="st6" points="935.6,604.1 935.3,610.3 935.8,613.2 						"/>
						<polygon class="st6" points="939.3,565.6 939.4,568.4 939.2,557.9 						"/>
						<path class="st6" d="M866.2,57.5l1.9,0.6C872.4,58.1,873.2,57.4,866.2,57.5z"/>
						<path class="st6" d="M619,58.2c-2.7-0.3-9.6-0.5-13.9-0.2C610.7,58,616.2,58.3,619,58.2z"/>
						<polygon class="st6" points="81.4,270.5 81.2,265.5 81.4,274.9 						"/>
					</g>
				</g>
			</g>
		</g>
	</g>
	<text transform="matrix(0.9566 0.2915 -0.2915 0.9566 677.6165 561.8607)" class="st3 st4 st7">í²‹</text>
</g>
</svg>
